<svg width="470" height="429" viewBox="0 0 470 429" fill="none" xmlns="http://www.w3.org/2000/svg">
<ellipse cx="234.796" cy="215.5" rx="229.5" ry="213.5" fill="#B6CCAC"/>
<path d="M88.1768 57.9313C88.1768 79.4415 95.626 93.2524 110.437 108.063C118.96 116.587 128.543 113.488 139.525 113.488C146.878 113.488 162.584 120.215 167.303 126.115C169.741 129.162 174.173 129.535 175.627 134.626C176.62 138.102 179.946 146.019 182.455 148.842C184.208 150.815 187.506 157.204 187.506 159.785C187.506 164.589 190.731 166.285 193.866 169.419C196.073 171.626 197.222 177.021 200.974 177.462C207.429 178.222 217.39 185.579 223.608 188.405C229.335 191.009 248.201 191.001 253.912 188.405C257.771 186.651 261.529 185.294 265.697 184.103C269.776 182.938 273.176 177.497 276.733 175.405C287.105 169.303 295.885 158.22 307.785 153.893C316.672 150.661 327.149 151.421 335.657 155.202C345.54 159.595 357.911 155.776 362.219 147.159C373.386 124.826 344.075 107.423 344.075 85.7097C344.075 77.3446 343.599 69.3799 344.075 61.2984C344.378 56.1479 347.609 52.9169 349.967 48.6718C352.469 44.1679 352.492 41.4281 352.492 36.0453" stroke="#1E1E1E" stroke-width="3" stroke-linecap="round"/>
<path d="M4 195.981C5.26522 208.634 18.1428 214.5 29.3466 214.5C40.6583 214.5 50.8397 216.184 62.1756 216.184C81.5773 216.184 102.673 209.73 117.171 224.227C123.608 230.664 122.419 242.764 126.898 250.603C128.7 253.756 131.376 256.294 133.632 259.114C135.874 261.916 140.105 261.733 142.05 264.165C145.248 268.161 167.953 265.007 173.196 265.007C183.062 265.007 188.435 271.164 196.672 273.518C201.869 275.003 199.29 296.31 199.29 300.361C199.29 310.646 182.791 318.393 174.037 318.88C155.675 319.9 137 328.734 137 348.342C137 356.643 137.46 363.236 137 371.069C136.564 378.478 116.89 382.494 111.372 380.797C103.607 378.407 96.1747 371.069 88.1769 371.069C82.819 371.069 70.9493 365.431 67.9744 360.968" stroke="#1E1E1E" stroke-width="3" stroke-linecap="round"/>
<path d="M296.936 234.703C288.941 234.703 273.898 240.821 273.366 249.855C273.108 254.237 273.366 258.269 273.366 263.323C273.366 267.881 274.765 275.283 272.524 279.317C269.498 284.764 267.152 287.926 263.265 292.785C260.239 296.567 253.491 298.555 249.797 302.044C239.14 312.109 241.878 320.706 244.653 333.19C246.3 340.604 252.784 352.033 261.581 352.55C273.427 353.247 281.362 344.133 292.727 344.133C297.6 344.133 297.78 351.542 301.145 354.234C305.342 357.592 309.436 362.317 315.455 362.652C327.876 363.342 337.878 356.661 344.075 345.816C350.6 334.397 360.928 323.726 370.076 314.577C377.684 306.97 369.613 292.584 366.335 285.209C361.234 273.731 368.395 257.309 378.494 251.538C386.145 247.166 376.062 223.072 376.062 216.184C376.062 209.22 377.544 193.639 368.393 191.024C360.669 188.818 347.026 187 339.024 190.557C327.416 195.716 318.945 204.377 308.814 211.975C302.66 216.59 296.868 236.42 296.936 236.386" stroke="#1E1E1E" stroke-width="3" stroke-linecap="round"/>
<path d="M435.568 332.93C424.288 332.93 425.495 302.922 427.244 295.051C428.871 287.726 436.979 285.791 443.144 285.791C450.471 285.791 457.183 280.741 464.188 280.741" stroke="#1E1E1E" stroke-width="3" stroke-linecap="round"/>
<path d="M179.088 62.9819C185.591 64.4271 194.13 86.1851 197.233 91.602C201.338 98.7687 210.581 111.815 211.075 120.222C211.639 129.808 211.075 101.017 211.075 91.4149C211.075 80.129 211.075 68.8431 211.075 57.5571C211.075 53.5702 211.331 42.5878 213.6 45.8659C223.17 59.6884 227.217 79.9394 233.616 95.3432C235.103 98.9244 244.746 123.63 244.746 108.157C244.746 92.4385 243.198 78.0436 239.789 62.7013C238.788 58.1976 241.379 71.8367 241.379 76.4502" stroke="#B0D2DD" stroke-width="3" stroke-linecap="round"/>
<path d="M222.86 101.703C221.082 106.841 218.15 113.091 217.809 118.539C217.159 128.95 224.223 98.6687 228.098 88.9832C229.737 84.8849 242.328 53.5547 242.969 69.9031C243.497 83.3601 242.908 96.8427 243.437 110.308C243.886 121.769 241.982 137.471 246.055 148.468C246.78 150.423 249.611 137.762 249.703 136.964C250.992 125.794 253.604 115.157 255.782 104.135C257.494 95.4743 258.638 86.695 259.804 77.9467C260.353 73.8337 258.559 86.1576 258.214 90.2926C257.237 102.022 255.034 137.23 255.034 125.46C255.034 114.008 260.484 101.042 263.265 89.9185" stroke="#B0D2DD" stroke-width="3" stroke-linecap="round"/>
<path d="M232.961 89.9185C232.961 103.699 232.961 117.479 232.961 131.259C232.961 133.11 232.671 136.833 235.393 133.878C243.619 124.947 248.35 110.259 252.79 99.2715C260.501 80.1865 267.43 60.092 272.618 40.1606C273.288 37.5864 275.637 18.3556 278.417 29.3111C280.517 37.588 280.004 46.1121 280.1 54.5642C280.105 55.0179 281.287 67.607 282.158 66.9101C287.025 63.0165 288.129 43.1058 288.518 49.3265C288.857 54.7486 285.157 72.8081 288.892 76.076C289.904 76.9616 291.386 70.3188 291.511 69.716C291.595 69.3097 287.452 82.1296 286.834 85.8032C285.437 94.1075 285.151 102.284 285.151 110.682C285.151 116.603 285.483 103.191 285.525 102.639C286.302 92.445 286.834 82.3733 286.834 72.1478C286.834 67.4525 286.816 65.956 284.403 71.5866C279.998 81.8651 264.058 119.777 273.366 129.575C282.063 138.73 296.211 90.6407 296.936 85.429C297.536 81.1137 300.511 66.4004 295.252 63.356C291.508 61.1883 284.936 75.1812 284.216 76.8243C282.235 81.3409 276.33 98.8422 281.784 103.013C284.287 104.927 285.133 94.4602 285.151 93.6597C285.207 91.1283 281.073 77.3034 278.417 85.429C277.477 88.3022 273.929 112.328 280.474 111.804C294.315 110.697 287.673 72.4326 283.467 65.7878C270.792 45.7614 270.012 90.0413 270.373 95.7173C270.606 99.3795 280.162 145.469 289.266 135.561C300.515 123.319 297.537 94.529 287.583 82.6231C284.621 79.0813 276.61 71.9175 271.308 75.5149C257.516 84.8742 259.453 110.102 268.316 122.093C278.07 135.29 290.135 122.714 292.446 111.804C296.847 91.0338 284.724 59.3903 261.02 55.6865C245.366 53.2406 249.394 93.3206 254.847 100.955C265.729 116.189 281.767 103.736 286.086 89.5443C290.136 76.2393 285.6 63.9229 276.546 53.8159C271.891 48.6192 262.431 43.5218 255.783 48.3912C240.26 59.7601 238.201 92.1986 251.854 105.631C257.645 111.329 267.477 110.886 274.301 107.315C284.068 102.205 286.15 89.9798 286.086 80.0043C286.018 69.2982 273.723 19.7822 258.588 45.5853C244.914 68.8995 236.26 125.934 263.826 143.605C283.39 156.146 276.158 105.877 274.301 99.6456C269.424 83.2717 260.174 61.4576 243.437 54.003C233.152 49.4227 217.587 49.7797 212.198 61.2048C199.795 87.4991 216.013 126.525 244.091 134.906C250.896 136.937 269.191 140.301 273.834 132.381C277.994 125.283 277.586 111.605 275.33 104.041C272.477 94.4751 254.771 64.3422 250.825 88.8896C250.303 92.1425 249.662 137.09 262.517 125.46C270.213 118.496 268.781 102.335 267.848 93.2855C265.942 74.7947 259.16 56.7579 246.804 42.6859C232.637 26.5512 225.129 62.161 223.047 71.6801C220.946 81.2859 215.922 126.769 233.803 126.769C254.716 126.769 249.884 79.5246 246.71 69.0613C243.105 57.179 217.715 10.186 202.658 34.9229C190.339 55.1605 182.799 97.5031 200.226 117.042C206.186 123.724 217.632 124.944 225.479 121.251C239.267 114.763 244.172 100.99 244.465 86.7385C244.665 77.0688 237.31 18.3759 217.903 42.3118C203.914 59.5643 194.644 104.184 210.046 122.935C221.507 136.887 215.702 108.666 214.068 104.135C211.709 97.5942 191.656 61.8018 186.851 82.6231C182.439 101.74 185.738 135.625 211.075 136.777C231.355 137.699 235.942 121.007 231.745 103.574C226.909 83.4865 210.082 83.2246 207.989 104.509C206.027 124.452 208.447 137.921 230.716 135C249.701 132.51 267.988 117.313 252.041 98.6167C233.861 77.3021 215.192 113.943 214.723 129.669C213.994 154.095 230.107 163.491 253.164 160.346C278.078 156.949 273.919 129.425 261.488 114.704C258.228 110.843 249.968 102.468 243.904 105.631C235.999 109.756 237.594 127.147 238.292 134.252C239.608 147.624 256.143 162.055 268.128 149.403C281.546 135.241 262.988 105.146 251.667 96.372C234.324 82.9307 232.961 105.733 232.961 118.539C232.961 124.941 235.905 132.467 243.998 127.611C257.541 119.485 245.697 100.825 236.328 94.5014C214.239 79.591 212.16 118.331 211.262 132.475C210.565 143.451 214.442 157.589 214.442 138.741C214.442 128.857 210.936 119.007 202.658 113.488" stroke="#B0D2DD" stroke-width="5" stroke-linecap="round"/>
<path d="M88.1769 52.8806C87.1428 61.1536 81.432 70.4426 86.1193 79.8172C90.4907 88.56 98.7279 92.9035 103.329 100.955C107.675 108.562 119.318 116.252 127.647 118.632C131.764 119.808 136.446 121.906 141.208 121.906C147.086 121.906 150.051 124.951 155.518 125.273C161.392 125.618 173.066 133.02 176.095 138.741C177.784 141.932 182.265 148.976 182.455 152.209C182.652 155.554 183.992 163.54 186.664 165.678C189.944 168.302 190.951 174.998 195.082 178.211C199.03 181.281 202.462 182.592 206.866 185.038C215.739 189.968 228 189.247 238.012 189.247C248.894 189.247 257.93 181.406 268.315 180.829C274.822 180.468 291.141 175.025 295.252 169.886C300.757 163.006 312.801 157.26 321.347 157.26C330.314 157.26 345.362 162.311 352.492 155.576C361.355 147.207 357.543 139.058 357.543 128.64C357.543 118.95 355.859 108.025 355.859 97.4944C355.859 87.544 350.809 78.3396 350.809 68.8742C350.809 57.7733 351.153 50.508 355.859 41.0958" stroke="#B0D2DD" stroke-width="5" stroke-linecap="round"/>
<path d="M110.063 54.5641C109.175 62.5514 103.344 72.9829 109.315 80.659C118.583 92.5758 130.497 99.7104 146.352 95.5302C169.221 89.5012 195.31 71.5268 208.737 52.2259C214.093 44.5271 222.243 23.245 210.233 16.7781C200.318 11.4393 187.708 25.123 182.455 31.7429C172.413 44.398 165.61 59.6828 179.088 71.7736C187.04 78.9071 208.792 88.0621 205.931 68.0325C205.026 61.6994 200.928 77.4333 200.974 79.8172C201.117 87.2465 207.663 89.2532 214.068 87.8608C231.837 83.9979 222.544 60.3891 213.694 75.9825C199.422 101.128 223.801 104.583 241.005 91.602C249.714 85.0302 260.807 74.4676 251.761 63.0754C241.001 49.5267 212.552 52.5029 200.6 62.4207C187.334 73.4287 186.382 96.892 196.672 110.121C209.635 126.789 234.566 129.356 252.789 119.848C261.426 115.342 268.02 107.835 262.329 98.5232C255.14 86.759 240.411 103.613 236.702 109.279C231.435 117.326 225.717 130.771 232.587 139.676C240.182 149.522 257.262 135.153 261.768 129.388C284.315 100.541 214.542 58.5038 202.096 85.0549C197.63 94.5819 199.093 107.513 199.29 117.79C199.331 119.884 201.124 130.084 202.283 122.841C203.392 115.91 196.018 76.075 184.045 84.3067C172.644 92.1445 175.625 115.601 175.721 127.143C175.758 131.659 175.163 137.405 178.246 141.173C179.669 142.912 181.088 143.272 180.397 140.425C178.433 132.321 172.349 125.673 170.577 117.697C169.572 113.176 168.263 114.3 171.98 118.164C175.408 121.73 176.635 124.251 178.714 128.64C184.874 141.644 185.593 154.942 201.348 161.001C213.7 165.752 224.936 170.728 238.386 170.728C245.284 170.728 273.193 162.16 256.531 154.267C250.483 151.402 215.278 144.734 214.442 158.944C213.882 168.46 208.748 174.591 218.183 182.139C224.932 187.538 243.777 188.102 251.48 183.822C263.06 177.389 265.987 162.769 266.632 150.526C267.346 136.96 275.912 128.073 285.525 120.596C289.874 117.214 281.047 131.227 276.64 134.532C271.407 138.457 266.055 144.83 262.891 150.526C257.468 160.287 256.628 172.412 271.682 172.412C282.14 172.412 291.832 163.351 296.561 153.893C301.793 143.43 311.776 140.643 322.189 145.849C328.327 148.918 329.105 150.526 336.499 150.526C339.831 150.526 348.796 154.442 349.125 148.842C349.702 139.033 351.938 127.337 344.449 119.848C337.84 113.239 343.125 119.012 348.19 121.906C351.069 123.551 353.998 130.491 354.176 133.69C354.572 140.817 354.224 143.792 346.6 143.792C339.83 143.792 332.388 142.803 325.93 140.799C316.47 137.863 303.418 136.806 296.094 129.482C292.354 125.742 288.756 111.358 292.633 106.754C301.395 96.3496 307.277 103.318 310.217 115.078C312.959 126.046 299.866 120.432 300.303 109.747C300.7 100.02 327.213 69.4236 331.542 86.7384C333.753 95.5844 339.083 112.556 325.556 111.804C318.931 111.436 318.904 95.7471 323.03 92.5373C329.878 87.2111 334.007 105.939 331.916 110.121C328.459 117.035 320.505 113.376 320.505 106.754C320.505 99.4268 330.65 94.3075 334.348 101.703C335.749 104.506 339.024 114.55 339.024 105.912C339.024 102.296 335.432 96.5587 332.29 94.5949C329.256 92.6986 331.441 93.0977 333.132 97.4944C334.54 101.157 333.973 105.41 333.973 109.279C333.973 113.414 286.022 102.748 280.1 101.703" stroke="#B0D2DD" stroke-width="30" stroke-linecap="round"/>
<path d="M98.8605 71.9818C91.9761 72.7467 95.6026 85.9871 98.4864 89.1913C103.863 95.165 111.013 97.3985 118.221 100.602C122.372 102.447 131.781 103.406 134.776 106.401C140.492 112.117 121.682 96.4243 114.012 93.8678" stroke="#B0D2DD" stroke-width="30" stroke-linecap="round"/>
<path d="M91.5439 56.2478C91.7497 54.3962 110.533 44.0145 114.272 41.9377C122.377 37.4345 135.498 29.5513 144.575 27.5341C154.144 25.4077 162.346 20.8935 172.354 20.8935C182.286 20.8935 192.336 19.2099 202.657 19.2099C212.478 19.2099 222.299 19.2099 232.119 19.2099C237.17 19.2099 242.221 19.2099 247.271 19.2099C251.612 19.2099 255.021 22.577 259.056 22.577C265.75 22.577 280.605 25.0007 285.525 28.937C293.134 35.024 305.979 33.7369 313.771 41.0959C321.877 48.7518 325.398 58.3842 323.779 69.7161C322.413 79.2781 314.56 83.9887 306.195 87.2062C297.192 90.6689 291.885 66.0392 291.885 60.3631C291.885 52.184 297.396 46.207 302.734 40.4412C310.416 32.1455 312.207 38.9 313.397 47.0818C313.559 48.1937 313.011 79.9925 307.411 74.3926C299.973 66.9544 318.405 51.7661 305.353 44.0889C300.026 40.9553 294.192 37.3722 289.36 33.6135C285.461 30.581 282.846 24.6807 279.165 22.577C276.451 21.0264 264.626 17.5264 272.524 17.5264C276.885 17.5264 283.812 16.2212 287.676 18.3682C291.947 20.741 296.88 20.4694 300.677 23.8864C303.635 26.5485 308.599 29.5221 312.087 31.3688C320.345 35.7404 332.587 36.2923 336.966 46.1465C338.423 49.4244 333.973 53.7553 333.973 57.0895C333.973 62.6238 331.885 68.5936 330.7 73.9249C329.249 80.4531 328.923 88.267 328.923 94.9692C328.923 98.9782 330.528 107.696 327.988 110.963C325.324 114.387 323.679 116.078 319.476 117.79C302.412 124.743 285.555 132.152 268.503 139.115C242.177 149.866 217.159 155.372 188.909 158.008C176.496 159.167 159.242 163.09 151.216 151.274C136.108 129.031 124.884 101.794 115.113 76.8244C114.768 75.9403 111.591 66.5361 114.365 66.5361C117.182 66.5361 120.063 72.2538 122.222 73.8314C133.48 82.0588 151.081 89.4874 163.749 78.2273C172.115 70.7906 170.203 46.1518 156.08 47.3624C140.951 48.6592 109.069 93.8777 127.834 105.819C136.343 111.234 152.616 101.135 147.942 90.8538C141.5 76.6814 129.788 109.661 130.639 116.107C131.868 125.412 140.787 128.571 147.849 132.007C154.945 135.459 171.803 144.534 172.354 153.893C173.233 168.846 165.998 151.347 164.778 145.382C161.6 129.844 158.885 115.305 158.885 99.3651C158.885 99.2277 156.508 103.817 156.267 104.229C154.168 107.809 151.227 110.861 149.158 114.423C147.516 117.253 155.809 114.228 158.885 113.114C169.515 109.265 179.093 103.4 189.002 98.0556C200.741 91.7247 212.57 85.5795 224.263 79.1626C231.297 75.3023 243.354 71.6213 248.113 64.6655C250.207 61.6053 251.493 53.9067 255.689 52.9742C261.805 51.6151 268.615 46.6079 275.05 44.463C282.083 42.1186 289.451 36.0453 296.936 36.0453C302.14 36.0453 306.078 35.5581 310.404 38.103C312.396 39.275 323.264 47.1147 325.182 45.7724C326.156 45.0904 328.564 42.4029 326.491 41.4701C315.867 36.6894 295.519 51.7463 287.489 56.809C283.705 59.1945 275.366 62.5502 272.992 66.349C269.479 71.9698 268.505 56.2922 268.409 54.8448C267.736 44.744 268.315 51.0687 268.315 57.7443C268.315 66.0552 268.45 74.3437 267.567 82.6232C267.194 86.1184 262.125 105.028 265.977 107.596C271.299 111.144 297.004 48.1033 278.697 55.7801C254.456 65.9459 231.884 80.3898 207.521 90.7603C190.861 97.8519 174.031 105.162 156.641 110.308C151.399 111.859 139.668 115.948 134.007 112.74C128.793 109.786 134.213 99.6655 129.891 95.3433C123.755 89.2069 118.319 92.4655 111.746 89.5444C106.593 87.2539 102.267 86.5515 96.5946 86.5515" stroke="#B0D2DD" stroke-width="30" stroke-linecap="round"/>
<path d="M351.391 61.8806C348.982 61.613 348.695 60.5265 348.024 58.5135" stroke="#B0D2DD" stroke-width="30" stroke-linecap="round"/>
<path d="M339.024 37.7288C339.387 34.8252 349.125 40.7955 349.125 45.3047C349.125 52.5294 343.586 60.2814 339.024 65.4136C334.238 70.7978 330.606 80.1862 330.606 87.3931C330.606 98.2732 339.626 107.656 330.606 115.172" stroke="#B0D2DD" stroke-width="30" stroke-linecap="round"/>
<path d="M56.1898 226.285C56.1898 238.955 55.1022 252.162 57.8733 264.632C59.6922 272.817 56.9274 255.584 56.5639 254.157C53.126 240.66 49.0615 225.436 41.9732 213.284C38.4219 207.196 42.9905 227.358 44.0309 234.329C44.9135 240.242 44.4493 248.512 46.9303 253.97C49.1026 258.749 42.6462 241.115 41.7862 239.192C38.4418 231.716 35.1122 224.759 29.2532 219.551C25.3719 216.101 20.0252 215.879 16.159 212.443C15.4447 211.808 17.4684 215.447 17.4684 217.026C17.4684 219.551 17.4684 222.076 17.4684 224.602C17.4684 234.671 19.8174 245.029 22.4255 254.157C25.6227 265.347 31.8566 274.099 37.6709 284.274C39.7936 287.988 43.3259 293.4 44.3115 297.835C45.1897 301.787 46.3223 309.76 49.0815 312.52C55.9076 319.346 56.9823 328.93 66.291 334.406C70.0905 336.641 74.8641 340.89 78.4499 343.759C80.2288 345.182 83.6068 345.161 85.6517 346.752C87.6107 348.275 90.0711 351.769 92.4794 352.457C104.265 355.824 113.512 377.738 126.057 367.702C137.143 358.833 131.662 337.139 138.683 325.988C146.888 312.957 150.198 302.486 167.303 310.088C177.225 314.498 181.028 313.86 188.254 304.57C194.334 296.753 188.144 286.232 184.139 279.223C178.501 269.358 168.052 267.895 157.202 266.69C147.844 265.65 137.762 254.596 132.323 247.797C129.607 244.402 129.745 238.656 126.524 235.077C124.053 232.331 118.575 226.777 116.797 223.666C112.231 215.676 97.179 216.184 89.0188 216.184C77.8866 216.184 66.9935 217.509 57.0316 211.975C50.0413 208.092 41.3426 206.6 35.1456 201.78C31.067 198.608 24.9993 197.187 19.9937 196.075C13.6168 194.658 15.7849 205.375 15.7849 209.45C15.7849 223.498 16.6531 235.382 21.2096 248.545C26.467 263.733 34.2306 275.649 41.8797 289.418C47.7068 299.906 53.0636 310.583 57.8733 321.405C61.4224 329.39 72.8522 338.577 81.4429 339.082C91.2049 339.656 92.646 336.758 94.9112 327.297C101.672 299.062 102.041 260.755 86.8676 235.077C84.8908 231.732 83.3609 225.943 79.4787 230.213C69.3049 241.405 63.0576 257.622 60.3051 272.302C59.892 274.505 60.63 289.063 61.1469 284.928C62.2065 276.452 61.2404 267.39 61.2404 258.833C61.2404 255.225 62.2503 265.992 63.111 269.496C65.7734 280.336 68.462 291.49 72.0899 302.044C74.979 310.449 85.143 340.579 97.4365 340.579C110.809 340.579 111.747 300.081 111.747 291.382C111.747 286.16 102.999 305.349 101.645 308.404C99.9474 312.237 98.2782 327.498 98.2782 316.728C98.2782 299.485 95.6791 285.072 89.8606 268.748C87.9825 263.479 82.8683 243.862 85.1841 260.33C86.6277 270.596 96.7127 308.133 110.063 286.144C116.408 275.693 118.254 263.336 122.502 252.006C124.458 246.791 124.408 244.965 127.273 252.286C130.888 261.525 134.485 270.595 137.093 280.158C139.734 289.84 139.892 282.423 137 276.791C135.485 273.842 129.89 265.194 126.057 265.194C120.788 265.194 118.181 287.958 117.732 291.101C116.592 299.083 113.97 314.444 118.481 321.873C121.833 327.394 128.169 317.334 129.33 314.484C132.443 306.843 133.32 298.759 133.633 290.634C133.767 287.146 140.374 295.822 141.115 296.9C149.678 309.356 154.538 293.658 157.202 286.331C158.229 283.507 160.98 288.052 161.879 288.95C165.142 292.213 156.393 294.031 153.835 295.31" stroke="#B0D2DD" stroke-width="30" stroke-linecap="round"/>
<path d="M70.2404 339.664C70.2404 347.531 68.7757 354.669 73.6075 360.709C78.121 366.351 83.2205 369.543 90.4429 369.968C100.663 370.569 104.688 371.153 111.394 360.615C116.071 353.265 118.639 345.805 124.488 338.916C131.951 330.126 141.778 321.359 146.935 311.044C150.828 303.258 159.525 300.699 165.173 295.051C169.345 290.879 170.945 291.914 176.303 289.532C182.744 286.67 191.59 282.102 198.938 284.201C211.888 287.901 183.81 304.456 181.354 305.62C178.479 306.981 170.188 311.649 167.044 310.951C160.722 309.546 164.519 271.212 164.519 265.589" stroke="#B0D2DD" stroke-width="30" stroke-linecap="round"/>
<path d="M202.657 148.842C197.796 154.311 200.974 178.045 200.974 170.728" stroke="#B0D2DD" stroke-width="30" stroke-linecap="round"/>
<path d="M288.518 261.639C284.951 266.395 277.624 303.953 292.633 296.245C301.568 291.657 305.416 283.938 302.734 274.359C298.462 259.102 290.43 281.271 287.208 287.828C280.96 300.547 291.552 295.945 298.526 290.072C308.231 281.899 309.316 273.551 308.72 261.639C308.022 247.671 285.611 265.65 283.467 270.057C275.684 286.055 300.408 283.768 306.663 275.108C313.541 265.585 306.729 243.12 293.568 243.12C292 243.12 285.768 242.222 285.244 244.056C283.763 249.24 285.151 256.665 285.151 262.014C285.151 266.183 284.57 269.232 286.741 272.489C290.416 278.002 289.304 259.184 288.144 252.661C285.797 239.458 275.058 265.79 274.395 269.402C272.65 278.903 271.85 303.519 283.841 308.404C300.536 315.206 297.664 282.932 293.194 275.482C284.167 260.437 272.964 259.993 273.366 278.101C273.572 287.379 290.654 303.758 286.46 312.146C281.709 321.647 270.645 312.534 263.265 312.146C252.953 311.603 249.058 328.723 262.891 317.196C267.887 313.033 277.229 307.567 274.956 299.613C273.785 295.514 263.315 300.944 261.955 302.044C247.393 313.833 259.466 340.498 277.107 326.549C291.07 315.509 274.415 291.747 261.955 311.771C249.825 331.267 272.98 329.367 283.467 318.88C286.6 315.747 284.674 311.166 280.007 312.333C273.519 313.955 269.999 322.6 269.999 328.607C269.999 336.634 318.822 334.357 318.822 320.563C318.822 299.312 268.336 307.896 261.02 322.247C251.254 341.403 283.467 336.642 283.467 323.93C283.467 317.712 260.766 326.897 258.775 328.046C255.285 330.059 254.847 335.784 254.847 335.715C254.847 332.182 255.438 328.973 252.322 326.549C249.268 324.174 244.942 327.135 244.746 330.664C243.872 346.399 268.997 339.508 275.985 335.715C281.743 332.589 280.968 312.903 269.625 317.944C261.598 321.512 251.995 332.05 253.257 341.514C254.623 351.757 280.339 344.208 285.899 342.449C298.914 338.333 311.931 333.704 324.059 327.391C329.496 324.561 342.332 319.144 343.888 312.146C344.186 310.803 344.075 301.185 344.075 304.102C344.075 315.676 338.992 322.745 330.606 330.664C328.093 333.039 325.451 333.255 322.843 335.06C318.634 337.974 309.06 350.204 312.462 346.377C318.205 339.916 307.835 308.009 307.037 338.334C306.92 342.785 307.037 347.256 307.037 351.709C307.037 358.154 311.092 354.731 315.454 352.55" stroke="#B0D2DD" stroke-width="30" stroke-linecap="round"/>
<path d="M307.037 342.449C304.282 345.548 303.94 354.234 309.562 354.234C320.17 354.234 337.87 344.848 345.758 337.399C353.25 330.323 359.226 325.12 359.226 313.923C359.226 305.762 358.637 296.349 353.241 308.685C350.189 315.66 348.354 331.934 339.398 322.621C328.455 311.24 344.068 298.673 350.435 290.26C359.452 278.344 360.91 300.1 360.91 307.75C360.91 310.531 364.581 303.524 365.961 301.109C368.007 297.528 369.029 302.516 370.169 304.57C372.589 308.926 362.32 307.128 360.162 306.721C351.592 305.104 342.055 298.341 336.031 292.317C328.03 284.316 323.787 275.237 331.355 265.568C336.55 258.929 343.982 252.212 348.096 244.898C353.785 234.784 338.681 255.061 337.247 256.495C327.529 266.214 314.332 278.475 299.741 278.475C294.185 278.475 296.887 264.996 297.029 261.452C297.766 243.028 309.722 225.718 322.189 212.817C325.323 209.573 335.418 194.33 338.65 204.025C342.358 215.149 330.744 221.234 322.189 221.234C318.414 221.234 318.256 219.061 318.915 215.436C320.461 206.933 337.936 203.312 344.729 202.809C352.814 202.21 360.365 211.491 353.334 218.522C344.586 227.27 343.575 208.948 347.442 204.399C353.452 197.329 359.364 198.138 362.594 207.018C368.881 224.31 335.086 217.867 326.117 217.867C310.468 217.867 325.971 203.088 334.347 202.716C342.979 202.332 354.314 201.296 355.766 212.91C357.753 228.811 342.569 240.633 328.268 243.12C324.469 243.781 320.505 245.839 320.505 239.753C320.505 233.382 337.074 228.915 341.456 227.969C346.723 226.831 357.302 223.132 359.601 230.026C361.531 235.817 360.911 241.409 357.169 246.488C353.446 251.54 346.434 258.685 339.959 259.862C330.761 261.535 352.2 238.364 353.334 237.415C361.294 230.755 385.461 212.962 396.919 218.054C399.743 219.309 399.631 236.679 399.631 239.66C399.631 257.879 374.986 258.912 360.91 258.272C350.946 257.819 357 240.938 359.601 236.386C363.479 229.6 380.747 213.369 375.22 218.896C373.208 220.908 372.102 229.084 371.011 232.084C369.091 237.366 365.775 240.382 361.752 244.056C360.099 245.565 348.722 254.905 353.615 254.905C359.933 254.905 366.35 253.556 372.695 253.222C380.498 252.811 368.745 258.826 365.586 260.33C360.948 262.539 347.896 267.465 345.758 271.741" stroke="#B0D2DD" stroke-width="30" stroke-linecap="round"/>
<path d="M357.543 194.298C359.157 191.715 371.173 183.983 373.069 187.564C375.093 191.387 374.378 195.935 374.378 200.19C374.378 208.376 365.194 213.433 362.594 221.234" stroke="#B0D2DD" stroke-width="30" stroke-linecap="round"/>
<path d="M435.568 300.943C435.245 306.44 432.201 311.322 432.201 316.937C432.201 324.383 436.593 315.336 437.626 312.354C439.314 307.477 438.893 303.04 441.461 298.418C443.075 295.512 446.018 293.512 447.353 290.842" stroke="#B0D2DD" stroke-width="30" stroke-linecap="round"/>
<path d="M454.087 274.006V279.057" stroke="#B0D2DD" stroke-width="30" stroke-linecap="round"/>
</svg>
