<svg width="201" height="491" viewBox="0 0 201 491" fill="none" xmlns="http://www.w3.org/2000/svg">
<path d="M70.9811 147.525C70.9811 167.354 73.6101 186.776 75.4693 206.483C76.4477 216.854 76.9642 227.256 77.3734 237.663C77.964 252.68 77.2613 235.271 77.7134 247.591C77.7706 249.148 77.6209 253.396 78.5975 252.181C81.459 248.624 82.226 241.137 83.0857 236.949C86.4218 220.696 87.4684 203.833 87.1999 187.272C86.909 169.338 84.1475 151.694 80.0255 134.264C79.7952 133.29 79.6931 132.25 79.2095 131.374C79.0553 131.094 78.9536 131.973 78.9375 132.292C78.6327 138.312 78.9375 144.46 78.9375 150.483C78.9375 182.575 77.0586 213.525 70.3011 244.973C69.0358 250.862 68.045 257.236 65.7449 262.858C64.4259 266.082 64.8608 259.447 64.8608 259.22C64.8608 238.896 64.6157 218.57 62.6167 198.323C60.9014 180.948 58.6614 162.548 53.8443 145.689" stroke="#69B342" stroke-width="3" stroke-linecap="round"/>
<path d="M70.3691 261.362C69.2311 259.94 69.765 256.41 69.7571 254.834C69.7268 248.782 69.8267 242.727 69.6211 236.677C68.6074 206.86 64.1846 176.835 59.4206 147.423C57.9602 138.407 56.4969 129.395 55.1704 120.358C54.596 116.444 54.4301 113.894 54.4564 119.44C54.6092 151.697 55.415 183.659 52.1443 215.834C50.4157 232.838 47.9007 249.746 45.0719 266.598C43.8787 273.707 42.0747 280.834 41.1618 287.985C39.7929 298.708 49.3787 267.834 51.3962 257.214C58.1779 221.517 58.5439 185.338 56.2924 149.191C55.7772 140.918 55.1934 132.637 54.2184 124.404C54.1517 123.841 53.9137 122.172 53.8783 122.738C53.5899 127.353 53.8923 132.182 53.9803 136.78C54.7474 176.821 56.6731 216.62 53.0963 256.602C52.0577 268.211 50.0388 279.881 49.8322 291.555C49.8088 292.875 48.884 295.786 50.1722 295.5C50.6868 295.385 50.677 294.569 50.8522 294.072C52.1284 290.449 53.9513 283.526 54.6944 280.573C61.186 254.773 62.8937 228.422 64.2828 201.927C65.4167 180.301 67.1381 158.007 65.9489 136.304C65.0022 119.027 62.2296 170.721 61.0867 187.987C59.8162 207.18 57.9114 226.277 55.1364 245.313C53.7909 254.543 51.507 263.959 50.9882 273.297C50.3081 285.539 60.8064 250.551 62.7527 238.445C68.0787 205.319 69.6229 170.831 68.159 137.324C67.9694 132.986 68.2573 126.766 66.4249 122.602C65.9164 121.446 63.8026 126.949 63.6368 127.328" stroke="#6BB242" stroke-width="10" stroke-linecap="round"/>
<path d="M61.8007 142.628C59.7084 171.645 56.0761 200.45 53.3003 229.4C52.5177 237.563 51.5955 248.089 51.5322 256.67C51.5217 258.097 51.404 262.013 52.2803 260.886C55.0729 257.295 55.0341 248.558 55.4084 244.429C56.4451 232.996 56.4153 221.403 55.7484 209.951C54.3416 185.794 50.6311 161.728 48.1321 137.664C48.0026 136.417 47.7241 129.111 47.7241 135.352C47.7241 150.117 47.628 164.867 47.01 179.622C45.7087 210.691 42.0612 241.718 41.7058 272.82C41.6736 275.64 41.008 283.713 42.3858 281.253C45.2904 276.066 46.6705 269.053 47.9961 263.402C55.6201 230.899 54.6989 196.611 55.3404 163.437C55.6248 148.729 55.6804 133.12 55.6804 118.759" stroke="#6BB242" stroke-width="10" stroke-linecap="round"/>
<path d="M55.0684 121.208C55.0684 148.619 54.9767 176.018 54.2524 203.423C53.5489 230.036 51.7711 256.64 51.3962 283.259C51.3863 283.964 50.9098 291.725 52.4163 286.387C56.2019 272.973 58.4569 259.155 60.2026 245.347C65.1649 206.1 66.0076 166.556 67.887 127.09C68.1467 121.636 68.2695 119.751 68.465 114.815C68.4937 114.09 68.5157 113.365 68.533 112.639C68.539 112.39 68.5084 113.138 68.499 113.387C68.0167 126.169 67.5825 138.95 67.445 151.741C67.0718 186.446 66.6871 222.097 71.5932 256.534C71.8004 257.988 72.6041 262.656 73.1572 264.49C73.3193 265.027 73.8697 266.058 74.3133 265.714C78.142 262.747 79.5348 253.351 80.5016 249.257C87.4202 219.964 87.2457 189.581 85.6358 159.697C85.1237 150.191 84.3762 140.692 83.2557 131.238C82.8741 128.018 82.6198 124.699 81.3856 121.82" stroke="#6BB242" stroke-width="10" stroke-linecap="round"/>
<path d="M79.5495 123.656C75.4239 138.63 74.0856 154.386 73.2252 169.83C71.5942 199.106 70.8757 229.553 74.8913 258.71C75.2626 261.406 76.045 268.595 77.6454 266.394C82.3456 259.932 84.7953 250.974 86.8939 243.443C95.5787 212.28 96.5484 179.793 96.6863 147.661C96.7242 138.841 97.2984 112.388 97.2984 121.208" stroke="#6BB242" stroke-width="10" stroke-linecap="round"/>
<path d="M97.2983 123.043C98.3121 157.005 101.546 190.917 103.827 224.81C104.954 241.567 105.915 258.345 107.091 275.098C107.327 278.471 108.343 268.44 108.587 265.068C109.796 248.36 109.71 231.499 108.859 214.78C107.76 193.188 106.782 170.898 101.651 149.803C101.411 148.817 99.9123 143.644 100.494 148.069C102.774 165.397 111.987 181.852 118.719 197.711" stroke="#6BB242" stroke-width="10" stroke-linecap="round"/>
<path d="M121.167 205.056L123.616 216.072" stroke="#6BB242" stroke-width="10" stroke-linecap="round"/>
<path d="M125.452 237.493C125.472 239.887 125.149 246.982 125.758 244.667C126.626 241.369 126.008 236.611 125.928 233.345C125.545 217.824 124.045 202.522 121.303 187.239C119.122 175.076 116.136 163.103 112.599 151.265C112.481 150.87 109.031 139.847 108.043 140.861C106.129 142.824 105.318 148.1 104.813 150.245C102.446 160.289 100.728 170.482 98.5904 180.574C93.2385 205.838 86.6274 230.518 76.9654 254.494C75.2183 258.829 73.4541 263.219 71.5252 267.483C70.6191 269.485 71.305 267.292 71.3891 267.006C75.6013 252.715 77.3812 238.586 78.2575 223.688C79.5214 202.201 79.7173 180.662 80.4676 159.153C80.7507 151.038 80.9094 126.8 82.0316 134.842C86.8767 169.565 89.7225 205.299 87.5059 240.349C87.4813 240.738 86.7089 251.643 87.0299 247.898C87.9745 236.877 88.0954 225.836 88.1179 214.78C88.1704 189.006 86.2351 111.726 85.7038 137.494C85.2727 158.405 86.8331 179.315 86.7239 200.227C86.6252 219.122 84.7835 237.786 83.0177 256.568C82.2073 265.187 82.867 258.419 83.2897 254.494C85.8926 230.325 84.8874 205.964 83.8337 181.731C82.9866 162.246 81.526 142.756 81.3856 123.248C81.3664 120.574 81.3856 117.898 81.3856 115.223C81.3856 112.911 81.4422 119.849 81.5216 122.16C82.1458 140.317 83.9103 158.424 84.9218 176.562C85.5306 187.48 86.4557 198.263 88.1179 209.068C88.2787 210.113 89.4684 207.367 89.75 206.348C92.8655 195.073 94.2977 183.207 95.7683 171.632C97.8779 155.027 99.5762 138.374 101.821 121.786C102.328 118.038 102.899 114.294 103.283 110.531C103.476 108.634 102.995 114.337 102.943 116.244C102.482 132.949 103.271 149.697 101.651 166.362C100.529 177.895 97.8963 189.203 95.1222 200.431C93.9423 205.208 94.8645 190.594 94.8502 185.675C94.8022 169.071 94.1182 152.479 93.3202 135.896C92.9728 128.679 93.6524 119.89 91.5181 112.877C91.1161 111.557 91.0947 115.612 91.0421 116.992C90.7854 123.722 90.6892 130.455 90.532 137.188C90.1294 154.435 88.5628 171.46 86.3838 188.565C86.0642 191.074 85.3298 198.608 85.3298 196.079C85.3298 191.983 86.4515 187.626 86.8939 183.567C89.5228 159.443 88.4042 135.335 88.1179 111.143C88.0949 109.196 87.5387 103.798 87.5059 109.307C87.4144 124.681 87.7767 140.056 86.8599 155.413C86.4955 161.517 85.4617 179.776 85.0918 173.672C84.654 166.449 84.6496 159.146 84.4458 151.911C84.1195 140.331 83.5264 128.776 83.2217 117.196C83.0956 112.405 81.9976 107.177 81.9976 102.269C81.9976 96.7929 81.5846 91.08 82.7457 85.7101C82.8599 85.1817 83.8588 80.4739 84.3097 80.4739C84.5871 80.4739 84.4458 89.9157 84.4458 90.6063C84.4458 93.8116 84.0741 97.3524 84.8198 100.501C84.9788 101.172 87.1812 106.862 87.4719 106.281C88.7135 103.798 88.343 99.567 88.5939 96.8626C89.1165 91.2305 89.9243 85.3828 89.206 79.7258C88.8496 76.9196 88.1179 73.786 88.1179 70.9874C88.1179 64.4622 86.5423 58.1157 86.8939 51.4365C87.1618 46.3464 92.0173 38.4524 95.3263 34.7757C96.855 33.0772 97.4892 27.8405 94.5102 26.9894C92.0069 26.2741 89.5428 25.7313 86.8939 25.7313C83.924 25.7313 82.5793 30.6467 81.3856 32.7356C79.889 35.3546 77.3147 34.2364 75.2653 33.2117C72.5073 31.8327 70.9464 31.8135 70.3351 28.4514C69.8857 25.9795 68.6688 23.1431 68.533 20.8351C68.4679 19.7279 68.8545 18.1923 68.397 17.1629C68.1817 16.6785 67.5947 13.649 67.581 13.6608C65.9527 15.0565 65.74 23.7355 63.0248 23.8952C57.5329 24.2183 56.8565 15.9839 55.2044 12.2667C54.1904 9.98528 54.1756 1.59834 52.9263 8.59453C52.301 12.0961 51.7255 16.4221 50.3082 19.611C49.2362 22.0231 48.0749 33.3387 42.4538 29.8795C41.6363 29.3764 38.7006 24.5278 38.5436 25.3913C38.4128 26.1111 37.4155 34.4552 36.7075 34.1637C33.4117 32.8066 33.0337 31.1243 30.0092 33.9597C27.4711 36.3393 25.9145 36.6896 22.6309 35.0478C19.876 33.6703 19.5602 31.3453 18.9247 28.4855C18.6292 27.1555 18.3467 26.2471 18.3467 24.8133C18.3467 21.0448 18.7739 27.984 18.4827 29.4035C18.2295 30.6377 18.3685 32.9705 17.2586 30.6275C16.8005 29.6603 15.8986 27.6498 15.8986 26.6494C15.8986 23.5262 14.3684 19.3388 12.9744 16.5509C11.8169 14.2357 11.5815 15.4727 11.1384 17.6389C10.556 20.4858 10.3903 23.1084 10.3903 26.0033C10.3903 33.8359 11.6144 41.4747 11.6144 49.2604C11.6144 54.1024 12.8384 58.6637 12.8384 63.5411C12.8384 70.2344 13.4805 76.5733 12.8724 83.262C12.25 90.1086 11.6144 97.3314 11.6144 104.207C11.6144 114.41 11.1282 125.749 21.3388 131.782C28.6707 136.115 45.7534 99.1471 47.9281 95.4685C52.547 87.6553 57.2348 79.8799 61.8687 72.0755C62.559 70.9129 62.3929 71.8175 62.4127 72.7215C62.5094 77.122 62.7653 81.5145 62.8888 85.9141C63.2191 97.6812 63.1715 109.508 62.8888 121.276C62.7828 125.686 62.5505 130.092 62.4467 134.502C62.4284 135.284 62.0574 138.091 62.5487 139.025C62.9524 139.792 63.4562 137.532 63.7388 136.712C64.8743 133.42 65.7989 130.046 66.5609 126.648C69.458 113.73 71.1857 100.498 73.3612 87.4442C73.6013 86.0036 73.8191 80.8788 75.1293 79.5218C76.155 78.4595 76.2184 82.2864 76.4894 83.738C77.5098 89.2046 78.1728 94.7283 79.2095 100.195C79.7306 102.942 80.3491 105.218 81.0796 101.079C82.0746 95.4406 82.5637 89.7709 83.6977 84.146C85.3544 75.9291 85.5565 67.703 89.036 59.9709C91.1574 55.2567 94.3208 51.2471 96.5503 46.5403C96.8086 45.9949 97.1721 44.1468 97.4344 44.7042C98.1779 46.2842 98.5224 49.3669 98.5224 51.1305C98.5224 54.3183 98.1731 57.3997 100.494 59.2569C102.535 60.8892 106.452 61.8752 108.927 62.759C111.937 63.8342 114.769 64.0324 117.495 62.589C120.06 61.2312 120.931 58.1688 123.922 58.1688C125.893 58.1688 125.83 58.1311 126.098 60.0049C126.333 61.6519 127.372 63.4294 126.064 64.9011C124.159 67.0444 122.424 69.8144 120.861 72.2455C118.972 75.185 119.235 79.5898 124.228 79.5898C127.685 79.5898 127.393 67.9764 129.77 78.6718C130.107 80.1909 130.96 81.3555 130.96 82.956C130.96 84.1018 130.626 85.877 131.096 86.9342C132.416 89.9047 134.804 90.7436 137.114 92.4764C139.521 94.2816 141.964 94.4133 144.697 93.6325C146.265 93.1844 150.092 91.8233 151.293 90.7423C151.739 90.3412 154.115 88.9139 154.693 89.0423C156.153 89.3666 153.611 94.4052 153.299 94.8905C151.994 96.9209 143.892 102.702 147.961 103.595C149.382 103.907 150.613 104.412 151.633 105.431C152.588 106.386 154.171 105.317 155.101 106.247C156.242 107.388 151.222 107.131 150.511 107.131C147.954 107.131 145.686 107.467 143.2 107.743C142.453 107.826 140.752 110.025 140.752 110.803C140.752 112.262 143.893 112.925 145.037 113.251C147.345 113.911 150.002 116.472 151.633 118.284C155.842 122.961 158.907 129.092 161.697 134.672C163.349 137.976 162.512 138.957 158.807 138.957C156.369 138.957 150.154 143.853 154.081 145.213C156.231 145.957 160.069 146.169 159.079 149.633C158.767 150.727 156.522 151.453 155.713 152.115C152.157 155.024 153.241 153.877 156.665 156.705C158.532 158.248 161.977 160.317 159.725 163.132C157.613 165.772 150.732 163.489 147.621 164.526C146.753 164.815 136.688 169.729 138.44 171.87C139.93 173.691 143.839 173.11 145.649 175.372C147.316 177.457 148.791 179.392 151.157 180.574C152.419 181.206 154.616 182.141 156.053 181.663C157.915 181.042 158.501 185.082 158.501 186.389C158.501 189.359 155.753 191.845 155.441 194.651C155.05 198.168 153.412 200.988 154.557 204.75C155.096 206.522 155.102 208.742 157.311 207.776C159.283 206.913 160.701 205.866 162.309 204.58C164.485 202.839 171.322 206.668 172.238 208.762C173.812 212.359 172.138 213.624 168.294 213.624C163.867 213.624 163.472 219.051 162.479 222.226C161.371 225.772 161.66 229.095 165.097 230.285C169.942 231.962 170.424 230.906 174.108 228.041C176.307 226.33 180.703 226.986 182.506 228.789C184.255 230.538 184.841 237.93 181.452 238.683C178.203 239.405 174.511 237.734 172.714 241.777C171.761 243.921 175.226 245.616 177.134 247.252C182.55 251.894 179.193 256.741 174.89 260.614C170.576 264.496 167.763 269.829 164.145 274.351C163.08 275.683 159.835 279.955 160.371 281.831C160.6 282.631 161.909 283.199 162.445 283.735C163.812 285.101 165.032 286.866 166.458 288.291C168.684 290.518 168.954 290.497 165.71 289.243C164.228 288.671 161.133 287.233 159.453 287.713C156.719 288.495 155.872 294.685 152.993 295.024C151.583 295.19 150.939 296.248 149.321 296.248C146.669 296.248 144.017 296.248 141.364 296.248C138.536 296.248 138.304 302.564 138.304 304.68C138.304 310.807 141.259 315.089 144.901 319.641C145.651 320.579 145.293 326.144 144.731 327.155C142.789 330.65 133.837 328.49 130.824 327.597C126.157 326.214 127.288 333.712 127.288 336.336C127.288 337.769 127.57 338.678 127.866 340.008C128.636 343.472 128.279 343.011 125.588 341.062C123.528 339.57 116.977 334.168 114.163 336.982C113.233 337.911 113.068 339.58 112.259 340.62C111.148 342.048 109.912 343.133 108.791 344.598C106.606 347.455 103.672 348.924 102.195 352.248C101.262 354.347 91.3194 353.569 89.342 352.69C86.5126 351.433 84.4347 345.803 81.0456 348.576C79.68 349.694 78.5484 350.427 77.3734 351.602C76.6335 352.342 74.6642 349.505 74.0413 348.882C72.7844 347.625 66.0648 340.206 64.2488 344.292C61.9022 349.572 58.7016 345.171 56.2924 342.762C53.8877 340.357 51.1497 339.509 47.9621 340.926C43.4341 342.938 41.9861 340.547 37.3196 340.314C33.949 340.145 31.0736 339.09 27.5611 339.09C24.7067 339.09 25.7143 334.705 24.943 332.97C23.8155 330.433 24.6196 327.75 22.9369 325.319C21.5603 323.331 16.3861 318.234 14.1985 321.953C13.0638 323.882 12.4056 325.792 11.3084 327.767C10.3555 329.482 10.3903 335.544 10.3903 333.582" stroke="#6BB242" stroke-width="10" stroke-linecap="round"/>
<path d="M101.583 220.968C101.51 237.266 100.957 253.479 99.6105 269.726C98.5282 282.789 98.5095 297.14 95.2243 309.916C93.5984 316.239 95.4581 296.858 95.3263 290.331C94.9439 271.405 91.3652 252.732 88.3899 234.093C87.6006 229.148 86.7783 224.196 86.3838 219.2C86.3222 218.419 86.0276 215.563 86.8259 218.18C91.4108 233.208 93.2797 249.259 95.7343 264.728C97.0729 273.165 98.266 281.624 99.6105 290.059C100.306 294.425 100.589 299.794 102.195 304C102.49 304.774 103.268 302.665 103.453 301.858C104.902 295.516 105.372 288.878 105.799 282.409C106.881 266.02 106.715 249.361 104.473 233.073C103.474 225.819 101.897 218.718 100.29 211.584C99.6694 208.825 98.6166 200.461 98.5224 203.287C98.1243 215.232 101.102 227.379 101.753 239.295C102.171 246.96 102.192 254.641 102.059 262.314C101.959 268.042 101.012 274.274 101.719 279.995C103.055 290.82 104.78 258.329 104.847 247.421C104.965 228.233 100.426 170.838 100.426 190.027C100.426 206.58 101.672 222.949 100.699 239.533C99.9502 252.276 95.4253 290.299 97.3663 277.683C101.695 249.547 99.2867 220.3 95.1222 192.339C94.5937 188.79 93.6033 182.682 94.6462 190.435C97.3869 210.807 100.786 230.445 100.562 251.127C100.435 262.985 99.2024 274.845 99.2024 286.693C99.2024 295.776 101.648 268.668 102.059 259.594C103.335 231.414 101.091 203.725 97.2983 175.814C95.7341 164.301 94.1697 152.79 92.6741 141.268C92.0026 136.095 92.1372 128.613 90.09 123.588C89.5169 122.181 89.9609 126.625 89.988 128.144C90.0969 134.24 90.348 140.339 90.294 146.437C90.1186 166.26 87.6784 186.505 81.1476 205.293C80.3415 207.612 78.6215 214.369 76.2854 216.276C75.6462 216.798 75.4584 214.787 75.4013 213.964C75.2731 212.115 75.2752 205.646 75.2653 204.375C75.0978 182.766 73.5974 161.373 69.145 140.18C67.9061 134.283 66.4242 128.436 64.7928 122.636C64.5188 121.661 63.7549 118.805 63.6708 119.813C62.942 128.559 64.9706 138.005 66.0849 146.641C66.5161 149.983 66.6685 153.915 67.887 157.113C68.7951 159.497 69.0666 152.114 69.145 149.565C69.5547 136.251 70.432 122.959 70.8451 109.647C70.9545 106.122 70.9811 102.598 70.9811 99.0724C70.9811 98.6077 70.9811 98.143 70.9811 97.6784C70.9811 97.4744 70.9786 98.0864 70.9811 98.2904C71.1008 107.98 71.7699 117.74 72.5452 127.396C72.8395 131.061 73.2835 134.701 73.7693 138.344C73.8918 139.263 73.856 141.85 74.3473 141.064C74.9549 140.092 74.6478 137.36 74.6533 136.44C74.6834 131.452 74.6151 126.466 74.7893 121.479C74.9632 116.503 76.0766 110.731 74.6533 105.839C74.068 103.827 74.0228 113.521 74.0073 114.305C73.9093 119.251 74.4057 125.962 72.8172 130.728C72.652 131.224 72.5797 129.71 72.4772 129.198C71.8029 125.826 71.9688 122.509 72.2732 119.099C73.1864 108.871 73.9733 98.6755 73.9733 88.3959C73.9733 77.5547 72.9301 66.7583 72.8172 55.9244C72.6982 44.4972 74.2886 78.7331 75.1293 90.13C75.521 95.44 75.776 86.8861 75.8774 85.7778C76.5519 78.4002 76.8463 70.913 77.0674 63.5068C77.1813 59.6921 77.2315 56.1729 78.5975 52.6603C80.6917 47.275 82.7585 41.5901 83.7997 35.8635C84.1375 34.0055 85.1528 31.6703 86.1458 30.0152C88.8717 25.4722 83.9018 40.5175 81.3856 45.1799C80.6875 46.4735 76.4671 55.2845 75.5713 52.7963C73.7414 47.713 71.5932 40.7856 71.5932 35.3535C71.5932 31.0531 70.9811 43.9397 70.9811 48.2401C70.9811 50.722 70.5724 43.2399 69.7571 40.8957C68.8875 38.3956 68.86 35.1005 68.567 32.4633C68.133 28.5571 69.0429 25.0542 66.6969 31.3753C65.4723 34.675 63.8024 38.0324 63.1608 41.5078C62.7721 43.6129 62.6727 45.2055 62.0727 42.1198C61.2032 37.6482 60.0671 33.2548 58.8766 28.8592C58.6142 27.8905 57.8117 25.2138 57.5165 26.173C55.8101 31.7187 53.546 38.0166 53.2323 43.8199C52.9684 48.7021 51.642 34.171 50.9202 29.3352C50.4662 26.2931 50.0816 32.3923 50.0362 32.8714C49.4338 39.2235 47.8632 45.4887 46.228 51.6402C46.0155 52.4396 44.1561 59.8638 44.0519 58.5085C43.6997 53.9306 42.6191 49.1236 41.5358 44.6699C40.5881 40.774 39.1096 36.9974 38.5776 33.0074C38.2818 30.7886 37.6154 37.3849 37.3196 39.6037C36.5868 45.0998 35.3896 50.4998 34.2594 55.9244C33.2065 60.9783 32.8242 52.2529 32.7294 51.0962C32.4308 47.4536 32.3469 43.826 31.5393 40.2497C30.6489 36.3065 30.6833 44.3947 30.5873 45.2479C29.6641 53.4536 28.3247 61.5835 26.9831 69.7291C25.7699 77.0951 26.4187 71.3628 26.1671 67.689C25.7081 60.9885 24.7722 54.1914 23.7189 47.56C23.3005 44.9254 22.0189 37.072 22.0189 39.7397C22.0189 50.8737 19.5708 61.8465 19.5708 72.8912C19.5708 79.7965 18.9587 59.0896 18.9587 52.1843C18.9587 49.0674 18.9587 45.9506 18.9587 42.8338C18.9587 41.9764 19.6265 36.8744 18.8227 36.2715C18.3279 35.9004 18.4059 37.4556 18.3807 38.0736C18.2561 41.1261 18.2977 44.1681 18.0747 47.22C16.9849 62.1328 14.413 76.8585 13.8585 91.8301C13.561 99.8631 13.8601 107.825 15.5586 115.699C16.8469 121.673 18.3943 114.091 18.9587 111.823C21.6739 100.911 23.6207 89.6779 24.807 78.5015C25.3301 73.5737 25.6279 68.6264 26.2691 63.7108C26.3761 62.8902 26.6099 58.0122 27.3231 61.7727C31.1888 82.1554 30.8008 103.277 32.3893 123.928C33.6414 140.204 32.691 91.2335 31.3353 74.9653C31.1091 72.2506 31.0378 69.338 30.5873 66.6349C30.5474 66.3958 29.7198 73.4797 29.7032 73.8093C28.9792 88.1868 29.0232 102.731 29.0232 117.127C29.0232 117.593 29.3632 131.056 29.3632 125.288C29.3632 114.896 29.4567 104.499 29.3292 94.1082C29.2723 89.4673 29.0887 84.8376 28.8872 80.2015C28.8327 78.9473 28.3362 74.0958 29.1592 78.6375C31.5512 91.8377 33.3997 104.98 34.5654 118.351C34.6891 119.77 37.079 143.207 38.2036 142.9C39.0079 142.681 39.1463 136.889 39.1557 136.78C39.7635 129.742 40.3855 122.688 40.7197 115.631C41.2974 103.435 41.2994 91.228 42.2158 79.0455C42.325 77.5942 42.5088 73.3153 42.8618 74.7273C44.0134 79.3335 44.2127 84.5528 44.6299 89.246C45.9366 103.947 46.016 118.768 45.854 133.516C45.8112 137.408 45.8432 141.399 45.4119 145.281C45.0864 148.211 45.2323 139.387 45.1399 136.44C44.6506 120.836 43.3082 105.405 41.0257 89.96C39.7624 81.4113 37.4242 55.5942 37.9316 64.2208C38.375 71.7592 40.3055 79.3168 41.6038 86.7299C43.8417 99.509 44.9244 112.737 47.9621 125.356C49.5874 132.107 48.9481 111.491 48.9481 104.547C48.9481 92.0114 48.9481 79.4762 48.9481 66.9409C48.9481 58.9738 50.9188 69.0265 51.4642 71.1911C55.1312 85.7446 57.0411 100.493 58.2645 115.427C58.7368 121.191 60.5086 138.415 60.5086 132.632C60.5086 130.239 59.3896 127.763 58.7406 125.492" stroke="#6BB242" stroke-width="10" stroke-linecap="round"/>
<path d="M63.0248 63.6769C69.6918 79.5917 72.8871 95.6466 75.1293 112.707C75.1771 113.071 76.5806 126.799 77.8494 126.376C80.2864 125.563 79.5495 114.553 79.5495 112.979C79.5495 98.3366 77.1591 83.7011 72.3412 69.8652C71.4229 67.2282 70.5324 63.26 68.805 60.9568C68.6276 60.7202 68.0665 65.0459 68.057 65.173C67.914 67.0798 66.7011 74.3458 66.6969 74.2854C66.3425 69.2048 64.1569 64.1221 62.4127 59.3927C61.3971 56.6389 60.3787 53.8938 59.4886 51.0963C59.1996 50.188 58.8681 47.7745 58.2645 48.5122C57.5888 49.3381 58.1342 52.841 58.1285 53.6804C58.1005 57.8647 57.9019 62.026 57.5165 66.193C57.3436 68.0627 57.5108 70.8344 56.9045 72.6533C56.4601 73.9866 56.9045 69.8425 56.9045 68.4371C56.9045 62.672 57.0708 56.6714 55.6804 51.0283C55.1002 48.6731 55.0717 51.908 55.0684 52.2524C55.0352 55.7002 55.0965 59.1426 54.9324 62.5888C54.7786 65.8179 54.6609 69.0971 54.3204 72.3133C54.0332 75.0255 53.8069 72.3306 53.7083 71.4972C53.1546 66.8155 52.0008 61.721 50.1722 57.3526C49.4916 55.7267 49.4343 58.7411 49.4241 58.8487C49.1367 61.8829 49.0291 64.9227 48.8121 67.9611C48.7529 68.7896 47.3331 78.6312 47.8601 73.5373C48.5808 66.5706 49.5838 59.1583 52.0082 52.5584C53.9136 47.3715 54.8443 49.7779 56.4625 53.6804C58.1695 57.7975 59.8147 61.9769 61.9027 65.921C62.9723 67.9414 63.0259 67.3137 63.3988 65.615C64.308 61.4728 64.8608 57.7169 64.8608 53.4764C64.8608 52.2122 64.9938 58.2449 65.7449 57.3866C66.6974 56.298 67.2816 52.8049 67.581 51.4363C68.7254 46.2048 67.8376 52.9457 67.513 54.5985C66.3554 60.4915 63.9871 66.4791 61.8347 72.0753C59.4691 78.2259 59.0123 72.4269 58.3665 69.0491C57.3097 63.5212 56.2565 55.9662 53.6063 50.9603C53.4836 50.7284 52.9215 55.8928 52.8923 56.2305C52.4946 60.8318 51.9954 65.4219 51.3962 70.0012C50.6494 75.7094 50.1722 81.2831 50.1722 87.036C50.1722 91.4562 50.2421 78.1943 50.1382 73.7754C50.0589 70.4087 49.8889 66.992 49.2541 63.6769C49.1374 63.0671 48.4872 60.4353 48.3701 62.8948C47.8373 74.0837 49.1148 85.3034 48.6081 96.5224C48.3137 103.04 47.8899 109.549 47.7581 116.073C47.7241 117.755 47.2183 122.518 48.1321 121.106C49.854 118.444 50.6501 114.693 51.8382 111.789C54.9691 104.136 58.2933 96.5301 61.8007 89.0421C62.4704 87.6122 71.1247 68.4603 73.2932 70.0692C75.0279 71.3562 75.8176 76.0917 76.3534 77.8895C77.7256 82.4948 78.5984 87.1954 79.5495 91.8982C79.757 92.9241 81.8671 104.778 81.9976 98.9025C82.1768 90.8421 82.9562 82.6891 83.9697 74.6934C84.5136 70.4028 85.2979 66.1482 86.1458 61.9088C86.302 61.1281 86.5723 57.4394 87.1659 60.3447C88.7776 68.2338 89.4235 76.1507 90.702 84.0778C91.3712 88.2264 92.0913 92.3949 92.4021 96.5904C92.4917 97.8002 93.539 92.5628 93.6262 92.0342C95.125 82.9475 94.8502 73.6027 94.8502 64.4249C94.8502 53.129 96.0743 86.9946 96.0743 98.2905C96.0743 107.325 96.2148 116.34 95.5983 125.356C95.4957 126.856 95.6743 128.496 95.4623 129.98C95.1984 131.827 95.0635 126.268 94.9862 124.404C94.4791 112.168 94.8502 99.8581 94.8502 87.614C94.8502 80.4575 94.0464 72.7523 95.1562 65.649C95.8489 61.2158 96.7639 69.8229 97.0263 70.8852C98.869 78.3438 100.211 85.9172 101.821 93.4283C102.9 98.4654 102.339 91.7601 102.535 89.8581C103.348 81.957 103.754 74.157 104.065 66.227C104.082 65.7737 104.206 64.4781 104.371 64.9009C104.658 65.6389 104.912 68.2462 104.949 68.5731C105.448 73.0682 105.846 77.5926 106.139 82.1057C106.532 88.169 106.479 106.407 106.479 100.331C106.479 93.1281 106.529 85.9357 106.173 78.7396C106.012 75.485 105.867 72.24 105.867 68.9811C105.867 68.2358 105.94 74.2013 106.003 75.3054C106.44 83.0245 106.938 90.7884 107.567 98.4945C108.008 103.896 108.389 93.4246 108.451 92.4422C108.872 85.7907 108.927 79.1807 108.927 72.5173C108.927 69.4483 108.424 67.6275 109.675 71.4292C109.811 71.8436 111.568 78.1552 112.123 78.0936C112.683 78.0313 113.554 72.6625 113.687 72.0413C114.098 70.1241 113.823 74.7199 113.823 75.3054C113.823 78.2515 114.657 80.2905 111.817 77.6175C107.051 73.1315 101.955 69.2309 97.4343 64.4589C96.1533 63.1067 94.567 60.158 93.8982 62.9289C90.2862 77.8928 92.2634 95.0899 93.0141 110.293C93.0487 110.993 94.0569 118.164 94.2042 117.059C94.9259 111.647 95.7858 106.112 96.3123 100.671C96.9807 93.7634 97.1088 86.8378 97.8764 79.9296C97.9299 79.4478 98.5441 83.0468 98.5904 83.2618C99.5497 87.7155 100.272 92.1912 100.971 96.6924C101.74 101.651 102.584 106.597 103.385 111.551C103.794 114.082 103.865 117.278 104.915 119.677C105.366 120.708 105.465 117.492 105.629 116.379C106.242 112.219 107.104 108.104 107.669 103.935C108.364 98.8097 108.779 93.6514 109.199 88.498C109.338 86.7877 109.312 81.6678 109.573 83.3638C110.644 90.3259 111.811 97.2584 113.177 104.173C113.669 106.666 114.85 115.494 115.081 108.083C115.35 99.4809 116.271 90.9684 116.271 82.3437C116.271 80.9495 116.037 76.8005 116.339 78.1616C116.966 80.9806 117.562 83.8201 118.073 86.6619C118.916 91.3514 120.467 105.502 120.555 100.739C120.659 95.1211 120.555 89.4924 120.555 83.8738C120.555 77.0067 120.572 81.2414 121.167 85.2339C121.543 87.7543 121.908 90.2797 122.392 92.7822C122.589 93.8036 122.675 96.8292 123.004 95.8424C123.869 93.2464 122.996 88.6256 122.256 86.0499C121.096 82.0152 119.911 77.2891 118.107 73.4693C117.202 71.5522 116.341 69.6837 115.795 67.6211C114.412 62.394 116.487 78.4133 116.883 83.8058C117.826 96.6238 119.783 109.236 123.004 121.684C123.187 122.394 124.249 128.876 125.316 129.232C125.754 129.378 125.532 128.331 125.588 127.872C125.657 127.302 126.04 123.835 126.064 123.588C127.067 113.114 127.231 102.416 127.288 91.8982C127.297 90.1528 127.172 84.9204 127.288 86.6619C127.529 90.2797 128.341 93.8071 129.124 97.3384C130.363 102.927 131.512 108.527 132.66 114.135C133.126 116.414 133.496 122.968 134.496 120.868C135.224 119.338 134.632 116.15 134.632 114.543C134.632 110.895 134.692 107.24 134.496 103.595C134.386 101.543 134.02 99.4624 134.02 97.4064C134.02 95.8897 134.449 100.412 134.768 101.895C135.023 103.08 137.752 114.84 138.304 110.701C138.737 107.457 138.784 104.105 139.494 100.909C140.003 98.6183 139.528 105.601 139.528 107.947C139.528 111.992 139.528 108.486 139.528 106.757C139.528 104.7 138.916 102.718 138.916 100.705C138.916 99.5077 138.642 107.517 138.542 108.559C137.437 120.101 135.19 131.602 132.218 142.799C131.349 146.073 130.896 150.027 129.498 153.135C129.341 153.484 128.769 148.227 128.75 148.035C127.286 133.557 124.127 119.218 119.161 105.533C118.388 103.402 116.858 97.1377 116.339 99.3445C115.614 102.428 116.444 106.585 116.577 109.681C116.977 118.963 116.727 128.123 116.305 137.392C116.066 142.656 116.252 132.605 116.237 131.918C116.02 121.945 114.943 112.023 114.469 102.065C114.117 94.6737 117.203 116.612 118.311 123.928C119.934 134.638 121.167 145.854 121.167 156.705C121.167 162.118 120.64 145.874 119.841 140.52C119.474 138.06 112.808 106.448 112.123 106.791C111.338 107.183 113.308 117.515 113.347 117.807C114.426 125.8 115.439 133.775 116.135 141.812C116.623 147.45 117.148 153.061 117.835 158.677C118.219 161.817 118.126 160.862 118.107 158.473C118.022 147.597 115.981 137.006 113.823 126.376C112.877 121.715 111.879 117.037 110.423 112.503C109.867 110.771 109.48 109.831 109.539 112.435C109.908 128.657 113.458 144.697 113.959 160.989C114.165 167.698 114.642 187.827 114.435 181.118C114.078 169.51 112.403 157.643 110.763 146.165C109.738 138.989 108.663 131.808 107.363 124.676C105.857 116.416 107.352 128.257 107.567 129.64C110.293 147.199 111.79 164.556 113.517 182.206C113.578 182.824 114.07 184.548 114.197 183.94C114.623 181.909 115.449 173.268 115.489 172.89C116.854 160 118.323 147.132 120.147 134.298C120.889 129.081 121.071 123.045 122.664 117.977C123.679 114.746 124.618 124.476 125.248 127.804C128.849 146.84 130.311 165.991 131.844 185.267C133.452 205.479 132.45 144.571 129.77 124.472C128.37 113.976 131.899 145.551 132.422 156.127C132.506 157.822 132.684 186.489 132.32 186.423C131.694 186.309 130.299 181.354 130.212 181.118C128.371 176.11 126.59 171.082 124.704 166.09C122.885 161.277 121.144 156.408 119.127 151.673C117.86 148.697 118.204 151.495 118.379 152.897C119.871 164.827 121.76 176.763 123.48 188.667C123.949 191.92 124.277 197.185 124.228 190.639C124.147 179.923 122.91 169.266 121.915 158.609C121.573 154.939 121.167 151.218 121.167 147.525C121.167 145.132 121.616 152.291 121.915 154.665C122.16 156.599 122.679 172.963 124.704 173.57C124.834 173.609 127.868 160.203 128.036 159.493C129.926 151.481 133.178 144.23 136.06 136.576C136.839 134.509 136.919 136.427 137.216 137.664C138.046 141.115 138.579 144.592 138.78 148.137C139.113 153.985 139.466 160.799 138.168 166.566C138.046 167.108 138.145 160.344 138.304 159.017C138.925 153.859 137.6 147.325 139.052 142.425C140.157 138.696 140.225 150.116 140.616 153.985C141.124 159.006 141.017 154.929 141.228 152.285C141.454 149.462 141.364 146.614 141.364 143.785C141.364 139.599 141.57 142.783 142.01 144.873C142.582 147.585 142.688 154.288 144.731 156.331C145.147 156.747 145.899 151.899 145.989 151.503C146.983 147.098 146.873 142.767 146.873 138.276C146.873 134.1 146.477 129.793 145.037 125.832C144.423 124.146 143.543 121.607 142.86 124.336C142.099 127.38 141.976 130.216 141.976 133.346C141.976 136.137 142.179 130.791 142.282 130.15C142.748 127.266 142.946 124.013 145.955 127.022C148.133 129.2 150.298 131.759 152.653 133.686C154.341 135.067 155.145 122.059 155.917 135.08C156.452 144.105 155.47 153.003 154.353 161.941C154.09 164.048 152.833 182.85 150.545 183.09C150.495 183.096 145.517 165.731 145.037 164.39C144.119 161.826 143.528 158.384 142.112 156.025C141.121 154.373 141.976 159.878 141.976 161.805C141.976 171.115 141.478 180.388 141.364 189.687C141.312 193.979 140.653 183.221 140.616 182.614C140.209 175.805 138.02 155.466 138.304 162.281C138.708 171.967 142.182 181.541 143.064 191.251C143.618 197.335 143.907 203.447 144.289 209.544C144.434 211.876 144.425 212.165 144.425 209.884C144.425 199.987 144.471 190.115 143.812 180.234C143.624 177.4 142.991 168.901 143.2 171.734C143.503 175.823 144.346 179.873 145.037 183.906C147.2 196.547 148.488 209.444 151.157 221.988C151.68 224.446 152.14 222.571 152.245 221.24C152.583 216.961 152.381 212.606 152.381 208.32C152.381 201.769 152.381 195.218 152.381 188.667C152.381 185.947 151.164 178.073 152.381 180.506C153.727 183.199 153.696 188.554 154.081 191.387C155.169 199.402 155.665 207.453 156.053 215.528C156.552 225.894 158.821 256.897 157.243 246.639C155.977 238.412 154.796 230.129 153.231 221.954C152.273 216.95 150.895 212.058 149.763 207.096C148.837 203.038 149.408 208.787 149.423 209C150.252 221.026 152.432 233.065 153.877 245.041C154.712 251.963 154.204 239.618 154.183 238.479C153.932 225.156 151.572 211.96 147.621 199.241C147.115 197.615 145.813 192.817 145.683 194.515C145.366 198.631 145.668 202.871 145.615 206.994C145.519 214.331 145.279 221.674 144.731 228.993C144.546 231.451 144.195 238.778 143.846 236.337C142.142 224.404 141.047 212.522 138.304 200.703C137.363 196.646 136.559 192.12 134.904 188.259C133.752 185.571 135.585 194.067 135.992 196.963C138.546 215.142 139.45 233.427 139.528 251.774C139.535 253.338 139.528 254.902 139.528 256.466C139.528 256.874 139.528 255.65 139.528 255.242C139.528 249.417 139.564 243.588 139.392 237.765C138.941 222.424 137.07 207.285 134.292 192.203C131.79 178.621 135.859 219.781 136.944 233.549C137.712 243.283 138.367 253.034 138.78 262.79C138.797 263.192 138.916 270.68 138.916 265.238C138.916 246.861 137.767 228.721 135.992 210.428C135.533 205.695 134.066 191.512 134.768 196.215C136.292 206.425 137.68 216.697 138.848 226.952C140.164 238.502 140.973 250.052 141.33 261.668C141.42 264.569 141.484 268.787 141.704 271.835C141.774 272.801 141.693 275.485 142.248 274.691C143.779 272.505 142.114 265.268 141.84 263.062C140.766 254.407 139.126 245.826 137.726 237.221C135.892 225.944 130.405 192.189 131.096 203.593C132.244 222.532 135.595 241.158 135.482 260.206C135.478 260.925 135.224 268.943 135.21 268.74C134.89 263.944 134.277 259.186 133.612 254.426C131.235 237.403 128.241 220.499 124.976 203.627C124.805 202.745 124.391 200.112 124.33 201.009C124.161 203.454 124.492 205.908 124.636 208.354C125.338 220.303 126.383 232.23 126.88 244.191C127.321 254.814 127.067 286.708 126.642 276.085C125.704 252.63 120.102 182.468 120.419 205.939C120.54 214.872 122.712 223.94 123.854 232.767C125.382 244.58 126.331 256.406 126.948 268.298C127.252 274.162 126.98 280.529 128.172 286.319C128.345 287.159 128.512 280.239 128.512 280.029C128.512 260.46 128.758 240.874 128.444 221.308C128.306 212.753 127.984 204.182 127.05 195.671C126.964 194.893 126.744 192.58 126.744 194.889C126.744 197.549 126.967 202.065 127.084 204.307C128.472 231.059 130.058 257.497 128.24 284.279C128.056 286.988 127.606 295.071 127.322 292.371C126.589 285.412 125.703 278.618 124.5 271.699C120.947 251.271 119.428 230.561 115.795 210.156C115.151 206.539 114.173 195.832 113.347 199.411C112.131 204.681 114.262 212.596 114.843 217.704C117.37 239.913 118.708 262.052 117.971 284.415C117.946 285.174 117.818 288.032 117.631 289.175C117.569 289.558 117.499 288.407 117.495 288.019C117.441 281.694 117.507 275.371 117.359 269.046C116.913 250.011 116.386 229.525 109.947 211.38C107.583 204.718 107.489 211.696 107.635 214.304C108.306 226.344 110.186 238.305 110.967 250.346C112.261 270.291 111.538 290.108 111.375 310.052C111.355 312.551 111.389 311.814 111.511 309.78C111.83 304.48 112.005 299.178 111.987 293.868C111.94 280.167 110.227 266.686 109.063 253.066C108.73 249.165 109.392 254.413 109.471 254.834C110.98 262.841 112.621 270.801 113.551 278.907C114.734 289.209 114.991 299.557 115.047 309.916C115.067 313.64 114.223 318.776 115.183 322.497C115.645 324.286 115.698 318.833 115.795 316.989C116.139 310.483 116.581 303.986 116.747 297.472C116.949 289.539 116.857 281.604 116.883 273.671C116.884 273.45 116.892 267.26 117.019 266.258C117.076 265.812 117.876 266.723 118.039 267.142C123.361 280.84 126.834 295.448 127.764 310.12C127.909 312.414 127.058 318.872 128.376 316.989C129.349 315.599 127.908 309.899 127.764 308.556C126.489 296.726 123.341 261.167 124.33 273.025C125.149 282.859 128.141 292.434 129.056 302.266C129.503 307.072 129.1 296.392 129.09 295.874C128.965 289.657 128.602 283.445 128.206 277.241C127.992 273.897 127.887 272.433 127.628 269.25C127.548 268.267 126.862 265.562 127.526 266.292C128.777 267.669 128.825 269.781 129.362 271.562C130.8 276.335 131.731 279.773 132.966 284.687C133.193 285.59 135.034 298.914 136.434 299.614C136.495 299.644 137.044 292.043 137.046 291.929C137.162 285.945 136.949 279.976 136.468 274.011C136.264 271.485 135.179 264.006 135.924 266.428C136.843 269.415 137.454 272.534 138.338 275.541C139.713 280.215 142.287 294.376 142.622 289.515C143.063 283.13 143.035 276.964 142.622 270.576C142.291 265.432 145.682 280.423 147.145 285.367C147.81 287.616 149.148 293.542 149.355 287.951C149.488 284.355 149.805 280.771 149.899 277.173C149.915 276.547 149.389 271.726 150.035 271.188C150.445 270.846 157.808 285.88 158.399 287.475C158.938 288.93 160.337 293.443 160.337 289.345C160.337 285.838 159.372 275.353 159.759 278.839C159.903 280.132 162.119 288.681 162.445 288.121C163.094 287.01 162.785 285.028 162.785 283.837C162.785 279.343 162.28 274.994 161.697 270.542C161.231 266.981 160.712 263.384 160.473 259.798C160.424 259.059 160.372 255.924 161.561 258.234C164.34 263.632 165.233 270.133 165.233 276.119C165.233 277.72 165.24 278.97 164.485 276.731C163.167 272.82 161.561 269.066 159.861 265.306C158.06 261.321 156.232 257.349 154.489 253.338C154.252 252.792 152.817 248.425 153.265 251.978C154.063 258.308 155.206 264.811 154.829 271.222C154.74 272.732 154.252 268.248 153.809 266.802C152.358 262.072 150.269 257.563 148.233 253.066C146.629 249.525 145.285 245.446 143.132 242.185C141.987 240.449 144.215 246.206 144.901 248.169C145.411 249.631 149.93 263.942 150.545 256.262C150.799 253.083 151.144 249.917 151.429 246.741C151.497 245.978 151.189 240.612 151.871 240.043C151.981 239.951 155.41 245.983 155.475 246.095C157.072 248.853 158.62 251.645 160.235 254.392C162.407 258.083 162.106 251.036 162.139 249.801C162.266 245.054 160.71 231.108 162.377 235.555C164.775 241.949 166.952 248.812 169.79 255.004C170.643 256.865 170.006 248.047 169.756 246.911C169.123 244.04 166.799 235.793 166.492 238.717C165.943 243.929 166.597 249.431 167.07 254.63" stroke="#6BB242" stroke-width="10" stroke-linecap="round"/>
<path d="M149.933 263.81C141.834 264.951 133.629 267.555 126.54 271.699C115.699 278.035 108.902 290.454 104.439 301.824C104.286 302.213 101.822 310.615 101.243 310.529C100.55 310.425 100.401 301.077 100.358 300.532C99.585 290.691 98.766 280.471 95.7343 271.019C94.8956 268.404 94.8222 269.57 94.8502 271.699C94.9329 277.982 95.7883 284.173 96.5503 290.4C97.4024 297.362 98.0816 304.335 98.3864 311.345C98.4425 312.635 97.7352 317.828 98.6584 319.097C99.6473 320.457 99.1046 315.743 98.9984 314.065C98.6808 309.046 97.633 304.139 96.5503 299.24C93.6352 286.05 90.3044 273.014 86.6899 260.002C86.5373 259.453 85.2314 254.011 86.0778 258.506C87.4435 265.758 89.3012 272.896 91.0421 280.063C93.0039 288.14 94.5404 296.271 96.2103 304.408C96.7099 306.843 97.2653 314.924 99.4745 316.785C101.371 318.382 99.2817 311.816 98.8624 309.372C97.8229 303.314 96.5682 297.274 95.1903 291.284C93.5095 283.977 91.7146 276.641 89.342 269.523C88.6191 267.354 87.1329 260.929 84.7178 259.594C84.1232 259.266 83.9259 260.757 83.8337 261.43C83.5982 263.149 83.2949 268.353 83.2217 269.659C82.7157 278.683 82.5263 287.728 81.5896 296.724C81.4479 298.085 78.0438 325.965 77.7134 325.965C77.2353 325.965 77.8076 325.014 77.8495 324.537C77.9938 322.895 78.1185 321.369 78.1895 319.709C78.4508 313.6 78.371 307.453 78.0535 301.348C77.259 286.077 74.6236 271.206 72.3412 256.126C72.1521 254.877 72.0762 253.601 71.7292 252.386C71.5978 251.926 71.582 253.336 71.5932 253.814C71.749 260.513 72.9276 267.127 73.9053 273.739C76.1069 288.628 76.0728 305.201 81.5896 319.369C83.7985 325.042 86.6659 310.067 87.0299 308.692C90.1934 296.741 93.6175 284.971 94.5782 272.583C94.8329 269.299 94.8502 266.013 94.8502 262.722C94.8502 257.758 94.9386 272.651 94.9862 277.615C95.0738 286.744 94.8313 295.716 93.4222 304.748C93.1631 306.409 92.9999 308.096 92.5381 309.712C92.4081 310.168 92.2061 308.82 92.1301 308.352C89.8543 294.356 87.2344 280.434 84.4458 266.531C82.9613 259.129 79.1362 236.949 79.2095 244.497C79.2657 250.283 80.283 256.054 80.5016 261.838C80.8079 269.944 79.971 277.843 78.3255 285.775C77.4174 290.153 76.6382 295.771 74.4493 299.784C74.0572 300.503 72.6868 293.488 72.6812 293.46C69.854 278.995 67.4499 264.446 64.8609 249.938C64.1704 246.069 63.5324 242.121 62.5487 238.309C61.6834 234.956 63.8628 245.11 64.5208 248.51C68.4137 268.623 69.5752 289.248 67.309 309.644C67.2592 310.093 66.7492 318.891 65.6089 319.233C65.0644 319.396 65.4833 318.101 65.4729 317.533C65.4269 315.026 65.4592 314.468 65.3369 311.753C64.2829 288.355 51.9616 219.067 54.1164 242.389C55.7633 260.216 56.2688 277.742 55.8164 295.636C55.7504 298.247 56.8668 306.335 55.2044 308.828C54.7385 309.527 55.0741 307.152 55.0684 306.312C55.0524 303.955 55.0684 301.597 55.0684 299.24C55.0684 283.122 54.536 267.172 53.3683 251.094C52.9859 245.828 52.9486 240.409 52.1443 235.181C51.5644 231.412 52.5136 242.8 52.7563 246.606C53.9755 265.723 54.601 284.563 52.8923 303.66C52.6001 306.926 52.7618 305.002 52.6203 307.196C52.5955 307.581 52.6203 306.426 52.6203 306.04C52.6203 300.758 52.6266 295.477 52.4843 290.196C52.0236 273.099 50.5489 256.058 49.5601 238.989C49.2062 232.879 49.0258 226.714 48.3361 220.628C48.2765 220.103 48.3307 219.521 48.0641 219.064C47.9338 218.841 47.8722 219.554 47.8601 219.812C47.707 223.065 47.8601 232.869 47.8601 234.569C47.8601 252.156 47.6304 269.745 44.7319 287.135C44.2436 290.065 43.5482 298.721 42.8278 295.84C40.7046 287.347 42.1922 276.66 42.2158 268.027C42.2635 250.606 43.3723 233.219 43.4399 215.8C43.4498 213.239 43.4399 205.554 43.4399 208.116C43.4399 213.648 43.5361 219.177 43.5759 224.709C43.7312 246.302 40.1124 267.036 33.9194 287.679C33.4287 289.315 32.2965 292.924 31.6073 294.752C31.396 295.312 31.0774 296.799 30.7233 296.316C29.7237 294.953 31.1128 288.647 31.1993 287.339C32.3484 269.968 33.1546 252.519 33.5114 235.113C33.7056 225.64 33.6474 216.162 33.6474 206.688C33.6474 202.97 32.533 192.034 33.7834 195.535C35.316 199.827 35.0429 205.864 35.3475 210.292C36.0473 220.467 36.4355 230.694 36.4355 240.893C36.4355 252.957 34.624 289.104 35.4835 277.071C36.269 266.073 37.4217 255.11 37.9316 244.089C38.8272 224.735 37.4119 205.678 36.8436 186.355C36.7277 182.416 36.4255 178.267 36.7076 174.318C36.9714 170.624 37.176 181.71 37.4556 185.403C38.7708 202.774 38.5436 220.153 38.5436 237.561C38.5436 240.741 38.1462 244.31 38.5436 247.49C38.9128 250.443 38.9485 241.55 39.1557 238.581C40.3678 221.207 41.6038 203.92 41.6038 186.491C41.6038 178.775 41.4568 171.073 40.9917 163.37C40.9222 162.219 41.3766 154.506 40.3797 153.509C39.8027 152.932 40.3797 155.141 40.3797 155.957C40.3797 158.542 40.3715 161.126 40.3797 163.71C40.4123 173.916 40.6986 184.11 40.9917 194.311C41.2715 204.048 41.6749 213.83 40.8557 223.553C40.8014 224.197 40.6455 231.531 39.7677 232.189C39.1649 232.641 39.5789 230.694 39.4957 229.945C39.1973 227.26 38.9009 224.466 38.6796 221.784C37.9759 213.255 37.6735 204.697 37.3196 196.147C36.3612 172.994 35.1373 149.808 31.8113 126.852C31.3287 123.521 30.0278 113.558 29.9752 116.924C29.881 122.952 30.751 129.084 31.1993 135.08C32.8355 156.965 32.2313 178.803 31.1993 200.703C30.9781 205.398 31.4062 211.196 30.1112 215.8C29.3069 218.66 29.9364 209.861 29.8392 206.892C29.2407 188.602 28.0762 170.383 26.5751 152.149C26.0121 145.311 25.5956 138.463 25.215 131.612C24.8819 125.617 25.4585 134.271 25.487 134.536C27.3559 151.931 28.1392 168.986 28.1392 186.491C28.1392 189.392 28.1392 198.097 28.1392 195.195C28.1392 191.75 28.1392 188.304 28.1392 184.859C28.1392 162.097 26.7502 93.8221 26.9151 116.584C27.0094 129.602 27.8126 142.535 26.9151 155.549C26.714 158.466 26.5677 161.41 26.3031 164.322C26.104 166.512 26.278 159.922 26.1671 157.725C25.515 144.814 23.4965 132.028 22.2909 119.168C22.0913 117.039 22.1099 117.021 22.0189 115.292C21.9986 114.907 22.0189 116.062 22.0189 116.448C22.0189 121.322 22.0341 126.196 21.8829 131.068C21.5986 140.229 20.4426 167.7 20.7948 158.542C21.149 149.333 21.9025 140.118 22.6309 130.932C22.6523 130.662 23.7464 122.241 24.127 122.772C26.8227 126.532 27.6055 133.488 28.8872 137.801C32.0682 148.503 34.2423 161.18 40.1077 170.85C41.6625 173.413 42.8106 160.926 42.9638 159.766C43.6393 154.652 44.4797 149.561 45.2759 144.465C45.624 142.237 45.5272 136.642 47.112 134.74C47.2843 134.534 48.9357 142.68 48.9481 142.765C49.7977 148.587 50.3969 154.43 50.6482 160.31C50.734 162.317 50.7686 164.729 50.7842 166.77C50.7897 167.495 51.2971 169.459 50.7842 168.946C50.025 168.187 49.4945 164.384 49.0841 163.302C48.5529 161.901 44.8972 151.29 43.3039 156.297C41.0337 163.432 40.039 170.772 36.7076 177.582C36.5371 177.931 34.6287 182.199 33.7834 182.139C33.3321 182.106 32.2934 176.723 32.2873 176.698C29.3626 164.659 27.4375 152.404 25.079 140.249C24.712 138.357 23.9688 134.71 23.5149 132.7C23.3222 131.847 23.2232 129.438 22.7669 130.184C21.319 132.554 22.57 140.142 22.4949 142.697C22.0733 157.03 20.6634 171.164 19.0947 185.403C18.7911 188.159 18.8914 191.248 18.3467 193.971C17.9136 196.136 17.9162 189.576 17.7347 187.375C16.4332 171.595 16.6539 155.657 15.8986 139.841C15.2166 125.559 15.9649 141.711 15.4226 130.932C15.3838 130.162 14.8776 128.075 15.4226 128.62C16.9486 130.146 16.4161 137.963 16.5106 139.637C17.3773 154.982 17.3486 170.398 16.5106 185.743C16.2655 190.232 15.944 194.711 15.8986 199.207C15.8815 200.895 15.8986 201.252 15.8986 199.343C15.8986 187.171 15.8986 174.998 15.8986 162.826C15.8986 151.129 15.8986 116.04 15.8986 127.736C15.8986 141.578 16.1811 155.453 15.6266 169.286C15.0113 184.633 13.6151 200.014 12.3624 215.324C12.1343 218.112 12.2264 215.733 12.2264 214.78C12.2264 209.475 12.2298 204.171 12.3624 198.867C12.7973 181.47 13.2552 163.921 14.6745 146.573C14.79 145.162 15.2781 139.506 15.8986 144.601C16.6753 150.978 17.1599 157.439 17.5987 163.846C19.3165 188.926 17.5598 264.396 17.1226 239.261C16.7205 216.136 15.2866 146.769 15.2866 169.898C15.2866 202.892 15.571 235.847 15.2866 268.843C15.2617 271.726 15.2757 269.592 15.2866 268.231C15.3298 262.824 15.6419 257.438 16.0346 252.046C17.5402 231.373 18.4899 210.714 19.7068 190.027C20.0307 184.519 20.4195 179.006 20.7948 173.502C21.0421 169.875 21.278 180.757 21.5429 184.383C23.2644 207.954 24.4183 231.466 24.467 255.106C24.4835 263.153 24.467 271.2 24.467 279.247C24.467 279.696 24.5013 285.339 24.467 281.083C24.3352 264.742 23.6571 248.394 23.3789 232.053C23.2007 221.582 23.2159 211.107 23.2429 200.635C23.254 196.341 22.3084 189.974 23.719 185.743C25.0959 181.612 23.9373 194.449 24.127 198.799C24.635 210.455 25.3982 222.079 25.419 233.753C25.4543 253.496 24.1116 273.166 22.7669 292.848C22.694 293.914 22.7811 295.014 22.4949 296.044C22.4158 296.329 22.0803 295.585 22.0189 295.296C21.167 291.287 21.0793 287.052 20.6588 282.987C19.0289 267.232 17.5108 251.477 14.8105 235.861C13.9366 230.807 13.1166 225.682 11.8864 220.696C11.3813 218.649 11.6651 224.914 11.7504 227.021C12.4688 244.764 13.3248 262.215 12.9745 279.995C12.8012 288.789 12.8384 297.585 12.8384 306.38C12.8384 325.263 12.8384 268.616 12.8384 249.734C12.8384 247.671 12.8384 245.608 12.8384 243.545C12.8384 241.619 12.8287 247.399 12.8384 249.326C12.9206 265.518 14.0175 281.681 14.0625 297.88C14.09 307.777 14.3581 317.705 12.9745 327.529C12.7139 329.379 12.4413 328.114 12.2264 327.053C11.5989 323.955 11.6053 320.74 11.3424 317.601C10.71 310.05 10.3903 287.31 10.3903 294.888C10.3903 302.289 10.3616 309.613 11.7504 316.921C12.4889 320.807 13.5627 324.618 14.4025 328.481C14.5474 329.148 14.7187 330.913 15.1506 330.385C15.8076 329.582 15.9389 327.055 16.1706 326.169C17.1947 322.254 18.2585 318.368 19.0947 314.405C20.3109 308.641 21.3693 302.845 22.4949 297.064C22.9179 294.891 23.0477 290.819 24.331 288.836C25.4995 287.03 24.9495 293.093 25.215 295.228C25.9403 301.058 26.6617 306.894 27.5271 312.705C27.9563 315.586 28.1427 319.124 29.2272 321.885C29.7982 323.338 29.7982 318.812 29.9752 317.261C30.8594 309.512 31.1993 301.798 31.1993 294.004C31.1993 285.234 32.3919 328.843 33.7834 320.185C35.0602 312.24 35.0388 304.139 35.3475 296.112C35.4773 292.738 35.0832 288.746 35.9595 285.435C36.6424 282.856 36.5718 290.737 36.8436 293.392C37.437 299.189 38.1645 304.968 39.0197 310.733C39.3397 312.89 39.3992 315.718 40.3797 317.737C41.7691 320.597 40.9917 311.396 40.9917 308.216C40.9917 305.134 40.9917 302.051 40.9917 298.968C40.9917 298.129 40.9917 297.291 40.9917 296.452C40.9917 296.157 40.985 297.041 40.9917 297.336C41.1958 306.212 42.9542 315.141 44.5279 323.857C44.7855 325.284 45.1066 329.581 45.2759 328.141C45.5188 326.077 45.6403 323.958 45.752 321.885C46.1889 313.778 46.5 305.659 46.5 297.54C46.5 290.961 47.8958 310.63 48.9481 317.125C49.6831 321.661 52.284 329.1 50.3762 333.65C47.8745 339.615 46.6157 339.595 41.7398 336.778C40.1783 335.876 38.2941 335.96 36.7076 335.146C34.3046 333.912 32.1868 331.616 30.1112 329.909C25.9704 326.505 21.5954 320.214 21.4068 314.745C21.2729 310.862 34.9292 322.022 36.2315 323.721C37.2995 325.115 41.032 333.937 42.2158 330.385C43.7274 325.851 42.8278 320.132 42.8278 315.425C42.8278 313.801 42.6467 313.68 43.2359 315.153C44.343 317.921 45.7917 320.582 47.248 323.177C48.9501 326.21 50.8703 330.948 53.3683 333.446C53.5423 333.62 56.5666 326.566 56.7685 325.965C58.6969 320.225 58.4108 314.356 58.7406 308.42C59.3455 297.532 61.8007 351.9 61.8007 340.994C61.8007 335.089 62.3731 329.217 62.4127 323.313C62.44 319.254 62.0774 313.989 64.2488 320.865C65.7776 325.706 66.4294 331.519 68.533 336.098C69.13 337.397 69.5819 331.381 69.6211 330.861C69.9489 326.518 69.4082 321.867 70.5051 317.601C70.634 317.1 71.1291 318.459 71.2532 318.961C72.0258 322.09 73.0955 325.131 74.0413 328.209C75.0161 331.382 75.7056 334.58 76.4894 337.798C77.0284 340.011 77.0903 337.976 77.1014 337.118C77.1946 329.943 77.2889 322.685 76.3534 315.561C75.8495 311.723 75.2426 307.797 74.1773 304.068C73.6736 302.305 73.4293 302.487 73.2932 304.204C72.5692 313.345 73.9571 322.618 75.8774 331.542C75.9346 331.807 77.3476 338.573 77.8495 337.118C79.4149 332.578 80.2335 327.516 80.7736 322.769C81.1676 319.306 81.3498 315.794 81.9976 312.365C82.2101 311.24 82.4888 309.927 82.7457 311.889C83.924 320.886 84.9531 329.895 85.5338 338.954C85.7374 342.129 86.2818 345.366 86.2818 348.542C86.2818 352.372 86.5758 348.309 86.7579 346.706C87.7369 338.091 89.3177 329.485 90.43 320.865C91.1521 315.269 91.5978 323.301 91.9261 325.149C93.0889 331.695 94.3708 338.22 95.3263 344.802C96.6517 353.933 96.0896 326.338 95.5983 317.125C95.5149 315.562 95.4623 310.868 95.4623 312.433C95.4623 314.524 95.5259 316.605 95.7343 318.689C96.6157 327.503 97.7191 336.604 99.1344 345.346C99.6149 348.314 99.7909 345.65 99.8825 344.53C100.166 341.064 100.313 337.598 100.494 334.126C100.95 325.427 101.583 316.797 101.583 308.08C101.583 305.707 101.832 309.182 101.855 309.304C102.632 313.502 103.948 317.583 105.119 321.681C106.276 325.731 107.358 329.789 108.179 333.922C108.288 334.473 108.602 338.837 109.403 339.158C109.501 339.197 111.293 328.947 111.375 328.277C111.838 324.521 111.938 320.769 111.987 316.989C112.01 315.191 111.009 310.559 112.463 311.617C113.321 312.241 114.1 316.421 114.435 317.329C115.751 320.897 117.053 324.467 118.447 328.005C118.53 328.215 119.967 332.766 120.419 332.766C120.732 332.766 121.018 328.598 121.031 328.413C121.441 322.939 121.167 317.376 121.167 311.889C121.167 307.134 122.468 321.319 123.48 325.965C124.153 329.058 124.544 332.948 124.976 327.665C125.513 321.087 125.418 314.663 124.976 308.08C124.547 301.706 127.019 311.842 127.9 313.657C128.159 314.191 131.969 323.063 132.796 321.409C134.471 318.059 134.525 313.293 134.632 309.644C134.684 307.872 134.981 308.598 135.38 309.917C136.269 312.857 136.975 315.878 137.556 318.893C137.774 320.02 139.13 327.383 138.508 326.577C136.065 323.41 133.96 319.969 132.32 316.309C131.177 313.756 130.758 308.833 128.512 306.924C128.05 306.532 122.545 314.065 121.575 314.813C118.646 317.07 118.269 312.966 117.495 310.665C115.648 305.175 113.907 299.547 111.035 294.48C110.022 292.692 110.736 294.67 111.035 295.16C112.152 296.99 113.801 298.379 115.387 299.784C117.193 301.383 119.489 302.836 120.555 305.088C125.744 316.042 121.638 333.497 113.483 341.878C108.729 346.764 104.181 339.763 99.1344 342.286C97.0601 343.323 94.0648 343.16 91.7901 343.51C88.2146 344.06 85.0157 344.598 81.3856 344.598C77.3054 344.598 73.6096 341.473 70.7091 338.954C59.01 328.794 45.1461 316.987 40.5157 301.552C38.7456 295.652 42.0705 299.047 45.0719 301.416C48.6412 304.234 52.2747 306.97 55.9524 309.644C57.1205 310.494 59.146 312.442 60.7807 312.501C61.5606 312.528 61.287 307.293 61.0527 306.72C59.7023 303.419 59.7456 313.734 59.2166 317.261C58.9094 319.309 58.7555 317.149 58.7406 316.513C58.6742 313.692 58.4137 310.897 58.2645 308.08C58.0076 303.23 56.375 294.173 63.4328 294.072C68.9948 293.992 74.4077 295.612 80.0256 295.296C91.2631 294.663 101.82 290.256 111.239 284.279C128.862 273.098 140.824 257.259 152.449 240.417C153.426 239.002 154.607 237.734 154.557 240.417C154.478 244.633 153.144 248.876 151.905 252.862C150.907 256.073 149.843 259.35 148.369 262.382C148.131 262.872 147.338 264.265 147.621 262.79C148.491 258.247 151.145 249.017 156.053 256.602C158.411 260.246 158.741 265.522 158.501 269.727C158.268 273.806 155.82 261.995 154.829 258.03C154.109 255.15 152.286 251.091 152.993 248.17C154.075 243.696 154.394 238.188 154.081 233.617C153.613 226.77 149.933 220.492 149.933 213.76C149.933 209.836 150.173 206.56 151.021 202.744C152.333 196.838 155.333 190.135 159.589 185.879C160.706 184.762 163.125 182.146 163.125 180.575C163.125 179.933 160.337 178.407 160.337 180.575C160.337 182.462 160.637 192.965 157.889 191.591" stroke="#6BB242" stroke-width="10" stroke-linecap="round"/>
<path d="M134.632 92.4421C134.998 89.8839 137.578 86.8625 139.188 84.7918C139.82 83.9792 145.114 79.6702 145.547 82.4797C145.69 83.4095 144.965 87.176 144.289 88.0219C143.702 88.7551 143.263 89.603 143.2 90.606C143.141 91.5573 143.896 88.815 144.425 88.0219C145.548 86.3361 146.535 83.5102 148.471 82.6497C149.562 82.1645 152.699 80.5109 153.877 80.8476C157.273 81.818 152.176 87.6909 151.157 88.77C146.004 94.226 145.649 102.735 145.649 110.055C145.649 117.595 145.52 125.066 145.003 132.564C144.555 139.05 145.853 147.523 143.813 153.645" stroke="#6BB242" stroke-width="10" stroke-linecap="round"/>
<path d="M149.012 157.515C149.257 159.507 149.35 161.543 149.35 163.55C149.35 165.277 149.607 160.104 149.856 158.396C149.865 158.329 150.024 156.853 150.024 157.43C150.024 158.569 149.994 159.713 150.034 160.851C150.074 162.032 150.465 163.228 150.737 164.375C151.329 166.874 151.472 169.682 152.424 172.06C152.666 172.665 153.409 172.833 153.942 172.997C155.498 173.476 157.476 171.29 157.615 169.829C157.714 168.799 158.413 167.675 158.965 166.83C159.408 166.153 160.315 164.796 160.315 164.009C160.315 163.664 160.552 163.286 160.315 163.888C159.899 164.939 159.759 166.121 159.209 167.121C158.95 167.591 157.615 168.606 157.794 169.229C157.978 169.874 159.916 167.421 160.062 167.13C160.438 166.377 160.989 165.552 160.989 164.684C160.989 164.024 161.206 163.082 160.558 162.669C160.051 162.347 159.204 162.035 158.628 161.863C157.584 161.553 157.835 161.523 158.778 161.732C159.648 161.926 159.231 163.107 160.071 163.26C160.753 163.384 160.933 163.441 161.458 162.875C161.63 162.691 161.851 162.338 161.833 162.069C161.827 161.986 161.228 162.808 161.158 162.913" stroke="#6BB242" stroke-width="10" stroke-linecap="round"/>
<path d="M152.217 199.856C153.521 199.856 154.528 199.789 155.329 198.76C155.845 198.096 156.182 197.444 156.772 196.82C158.201 195.307 159.3 192.442 159.64 190.4C159.921 188.712 160.338 186.996 160.783 185.349C161.008 184.516 161.31 183.911 161.73 183.165C162.273 182.199 161.403 184.648 161.327 184.852C160.834 186.166 160.201 187.508 159.94 188.891C159.738 189.958 160.143 189.64 160.614 188.854C161.084 188.072 161.393 186.907 161.627 186.024C161.77 185.484 161.513 186.253 161.458 186.361C161.167 186.933 160.732 187.402 160.315 187.879" stroke="#6BB242" stroke-width="10" stroke-linecap="round"/>
<path d="M158.459 204.411C158.796 204.276 158.906 203.8 159.049 203.502C159.323 202.933 159.839 202.519 160.324 202.134C161.493 201.206 162.561 200.83 164.044 200.737C166.365 200.592 169.984 200.913 171.579 202.893C172.819 204.432 174.145 206.237 174.447 208.254C174.654 209.633 174.524 210.437 173.435 211.327C172.207 212.332 170.787 212.969 169.424 213.727C168.366 214.314 167.445 216.317 167.1 217.438C166.605 219.046 166.055 220.592 165.544 222.124" stroke="#6BB242" stroke-width="10" stroke-linecap="round"/>
<path d="M172.46 238.318C173.433 237.549 174.33 236.614 175.441 236.041C176.141 235.679 176.95 235.686 177.662 235.366C178.05 235.191 179.177 234.585 178.796 234.775C177.177 235.585 175.669 235.966 173.866 236.2C172.356 236.396 172.674 235.439 173.304 234.354C173.794 233.509 174.443 232.841 174.953 232.039C175.636 230.965 176.51 230.525 177.521 229.799C178.618 229.011 179.595 228.315 180.558 227.353C181.496 226.415 182.413 225.186 183.631 224.616C186.301 223.368 189.232 223.469 192.104 223.979C192.798 224.102 195.571 224.328 195.571 225.338C195.571 227.026 194.538 227.669 193.303 228.702C191.584 230.142 189.884 231.576 188.055 232.882C187.828 233.044 185.341 234.778 185.487 234.194C186.046 231.959 188.784 230.225 190.492 228.974C191.445 228.275 192.427 227.341 193.491 226.809C194.122 226.494 192.271 227.53 191.616 227.793C190.364 228.297 189.047 228.825 187.699 229.002C187.105 229.08 187.296 228.398 187.343 227.99C187.492 226.682 187.98 225.415 187.98 224.092C187.98 223.399 185.423 223.637 184.981 223.642C182.735 223.664 180.598 224.426 178.983 226.041C178.459 226.565 178.103 227.22 177.709 227.84C177.661 227.914 177.402 228.379 177.474 228.346C180.043 227.205 182.676 225.372 184.831 223.585C184.88 223.545 186.038 222.501 185.984 222.489C185.266 222.329 183.847 223.232 183.228 223.482C179.516 224.985 176.097 226.458 172.741 228.674C171.513 229.486 170.229 230.241 168.918 230.858C168.669 230.975 168.877 230.682 169.002 230.624C170.78 229.798 172.964 229.612 174.86 229.199C179.664 228.152 184.388 227.005 189.311 226.716C190.497 226.646 193.109 225.974 194.184 226.678C195.033 227.234 194.885 229.248 194.634 230.024C194.122 231.606 192.235 231.623 190.932 232.086C189.036 232.76 187.027 233.331 185.018 233.557C184.113 233.659 183.702 233.535 182.919 233.088" stroke="#6BB242" stroke-width="10" stroke-linecap="round"/>
<path d="M168.58 254.175C170.189 254.979 171.923 255.759 173.135 257.136C173.956 258.069 174.617 259.271 175.656 259.985C176.111 260.298 178.379 262.182 178.833 261.728C179.368 261.193 179.24 260.066 179.798 259.507C180.32 258.986 179.491 259.683 179.283 259.835C178.273 260.576 177.176 261.167 176.172 261.935C175.311 262.592 174.383 263.858 173.304 264.128" stroke="#6BB242" stroke-width="10" stroke-linecap="round"/>
<path d="M170.099 266.996C169.439 268.755 168.727 274.387 169.096 272.544C169.278 271.632 169.612 270.025 170.305 269.395C170.472 269.243 171.584 268.559 171.608 268.72C171.77 269.854 171.394 271.042 170.773 271.972C170.217 272.806 169.315 274.135 168.412 274.587" stroke="#6BB242" stroke-width="10" stroke-linecap="round"/>
<path d="M160.315 288.419C161.665 287.204 164.185 287.238 165.881 287.238C167.469 287.238 168.676 287.84 169.799 288.963C170.259 289.423 170.38 289.972 170.689 290.528C170.868 290.851 170.676 291.207 170.905 291.493C170.983 291.591 170.992 292.449 170.858 292.449C170.783 292.449 170.019 289.44 169.93 289.094C169.314 286.697 168.42 284.669 166.931 282.684C166.654 282.315 166.291 281.714 165.966 282.365C165.601 283.095 165.397 284.062 165.375 284.877C165.334 286.416 165.776 287.984 166.294 289.413C166.725 290.603 166.725 291.733 166.725 292.974C166.725 293.168 166.345 292.479 166.256 292.374C165.822 291.859 165.301 291.662 164.719 291.371C164.209 291.116 163.921 290.676 163.52 290.275" stroke="#6BB242" stroke-width="10" stroke-linecap="round"/>
<path d="M143.614 290.95C142.032 293.512 141.812 296.075 141.262 298.963C140.625 302.304 140.431 305.785 139.987 309.159C139.691 311.409 140.209 313.537 140.24 315.747C140.282 318.708 139.488 321.915 137.869 324.444C136.996 325.808 135.771 326.71 134.767 327.931C134.057 328.795 133.189 329.611 132.274 330.255C131.349 330.906 130.267 331.911 130.634 333.198C130.765 333.654 131.418 333.889 131.768 334.135C132.411 334.587 132.698 335.234 133.193 335.784C133.615 336.254 131.299 338.663 131.056 339.017C130.82 339.361 130.312 339.785 130.287 340.208C130.263 340.617 130.119 341.471 130.119 340.545" stroke="#6BB242" stroke-width="10" stroke-linecap="round"/>
<path d="M17.7117 19.7339C19.2884 19.8552 21.4228 21.0071 21.9075 22.5934C22.3405 24.0102 22.3673 25.7261 22.3673 27.2059C22.3673 27.7518 22.626 28.3599 22.626 28.8511C22.626 29.173 23.022 29.5163 23.2295 29.7205C24.3505 30.8234 25.8187 31.9931 27.2385 32.6662C29.5896 33.7807 32.2515 34.418 34.7895 34.9221C38.5235 35.6638 42.31 36.2264 46.0909 36.668C51.4656 37.2957 56.8587 36.9562 62.2275 37.8391C64.474 38.2085 66.6596 38.8248 68.9307 39.0604C71.0781 39.2833 73.2861 39.7074 75.4399 39.7717C77.3043 39.8274 79.02 40.1045 80.8212 40.5548" stroke="#6BB242" stroke-width="10" stroke-linecap="round"/>
<path d="M42.0079 347.573C39.0017 349.606 35.8017 351.601 32.9888 353.903C32.439 354.353 32.3318 354.552 33.1111 354.147C34.45 353.453 35.7579 352.812 36.9822 351.92C38.7194 350.653 40.1827 349.418 41.6276 347.818C41.873 347.546 44.2084 344.608 44.2084 346.12C44.2084 347.792 42.5628 349.124 41.3695 350.14C40.8757 350.561 37.3187 352.886 39.6173 352.219C42.0992 351.498 43.9177 349.995 46.1644 348.85C46.7481 348.553 49.5381 347.447 47.7128 347.342C44.8869 347.181 42.7774 348.471 40.4187 349.91C38.4018 351.139 36.6668 352.731 34.6731 353.984C32.9105 355.092 31.4159 356.541 30.1635 358.195C27.2685 362.019 24.2135 365.454 20.3566 368.247C19.1813 369.098 17.8896 369.765 16.5398 370.298C15.5177 370.701 13.1673 371.872 11.9894 371.479C10.4929 370.981 9.99486 366.978 9.97915 365.72C9.92161 361.118 10.9018 355.789 12.6686 351.499C14.1642 347.867 14.5834 344.125 15.3444 340.32C15.8347 337.869 14.6562 345.274 14.4344 347.763C14.1286 351.195 14.1285 354.611 13.7009 358.032C13.6105 358.756 13.43 359.506 13.4021 360.233C13.3865 360.637 13.4021 358.699 13.4021 358.44C13.4021 354.699 13.6466 350.956 13.6466 347.207C13.6466 346.116 13.8717 343.092 12.6686 342.385C11.4567 341.672 11.2204 340.36 10.9571 342.575C10.4975 346.441 10.2236 350.218 10.2236 354.107C10.2236 355.823 9.79922 353.269 9.73465 352.871C9.48748 351.346 9.17207 349.838 8.8925 348.32C8.3582 345.42 7.77869 342.211 7.77869 339.26C7.77869 337.738 8.69649 340.569 9.00117 341.094C9.32513 341.652 10.3938 344.965 11.4597 344.232C12.806 343.306 13.453 340.544 14.1899 339.125C14.389 338.741 14.7143 338.357 14.9913 338.024C15.367 337.574 15.1194 338.466 15.1135 338.88C15.076 341.505 13.7176 343.958 13.0353 346.459C12.3777 348.871 12.0209 351.582 11.7449 354.066C11.4827 356.426 11.4428 358.78 11.093 361.129C10.6071 364.392 10.2236 367.65 10.2236 370.95C10.2236 374.49 10.0284 377.973 9.78898 381.504C9.67885 383.128 9.73465 384.766 9.73465 386.394C9.73465 386.672 9.57654 388.118 9.84331 387.154C11.1865 382.304 12.2842 377.383 13.6466 372.539C14.1025 370.918 14.4234 368.865 15.2494 367.364C16.1703 365.689 16.7004 363.699 18.7266 363.275C20.9723 362.805 23.2999 362.677 25.5046 361.998C29.4921 360.772 33.9768 362.062 37.9874 360.776C39.0597 360.432 39.7487 359.857 40.541 359.065C40.7738 358.832 42.7288 356.519 41.4918 357C37.4376 358.577 34.2883 362.656 31.6848 365.91C29.9201 368.116 27.2803 370.454 26.0071 373.001C22.6434 379.728 21.9594 386.22 21.9594 393.661C21.9594 401.036 21.2259 408.314 21.2259 415.679C21.2259 420.698 21.7149 425.686 21.7149 430.701C21.7149 433.954 22.2584 437.461 23.0732 440.603C25.0283 448.144 29.4314 454.765 34.9176 460.149C38.599 463.763 40.2588 468.685 43.4749 472.632C45.6173 475.262 48.0473 477.724 51.0543 479.356C52.3643 480.067 53.7155 481.222 54.8575 482.181C55.5322 482.748 56.2564 483.257 56.8135 483.947C57.2541 484.493 58.4683 484.274 59.109 484.368C60.209 484.53 61.6739 484.625 59.6116 484.925C56.2219 485.418 52.4315 484.984 49.044 484.789C44.3384 484.518 39.6239 485.224 34.9176 485.224C32.6796 485.224 30.6237 484.932 28.4249 484.545C26.5212 484.209 24.6095 484.301 22.6929 484.124C18.5582 483.741 14.5684 484.376 10.4681 484.49C9.85182 484.507 8.05074 485.225 7.67003 484.463C6.86497 482.853 7.60487 479.775 7.47987 478.025C6.98522 471.1 5.67783 464.278 5.34733 457.338C4.97064 449.427 5.20003 441.665 5.7684 433.771C6.25379 427.03 7.65937 420.406 8.40351 413.709C8.81855 409.974 9.46169 406.276 9.78898 402.53C10.1186 398.758 10.0291 394.958 10.278 391.175C10.6121 386.096 11.4334 381.145 12.2883 376.138C12.6549 373.991 12.9557 379.938 12.9674 380.091C13.5436 387.581 13.4021 395.092 13.4021 402.598C13.4021 405.009 13.3641 407.428 13.4564 409.838C13.4868 410.633 13.1115 412.628 13.7824 412.201C14.2144 411.926 14.3467 409.5 14.38 409.24C14.818 405.826 14.9816 402.381 15.1135 398.944C15.4038 391.382 15.1341 383.896 14.8962 376.342C14.8694 375.491 14.869 372.937 14.869 373.789C14.869 375.321 14.8942 376.849 14.9777 378.38C15.324 384.729 15.818 391.031 15.847 397.396C15.8568 399.533 15.847 401.67 15.847 403.807C15.847 404.33 15.8128 405.859 15.9964 405.369C17.3121 401.861 17.5031 397.645 18.0475 393.973C18.8779 388.371 19.7251 382.773 20.343 377.144C20.6117 374.696 20.5133 376.152 20.669 377.877C21.6588 388.841 22.3085 399.683 22.0952 410.707C21.8687 422.415 20.6563 434.023 19.9219 445.697C19.8369 447.049 19.7589 451.113 19.7589 449.758C19.7589 447.469 19.9049 445.185 20.0034 442.899C20.3687 434.424 20.1498 425.962 19.5959 417.499C19.3072 413.086 18.9155 408.688 18.4006 404.296C18.2178 402.736 17.9334 398.059 17.803 399.623C17.2391 406.39 18.098 413.423 18.1154 420.202C18.1434 431.097 16.8909 441.816 15.7112 452.624C15.6292 453.375 15.2638 458.174 15.4124 454.553C15.7224 446.997 15.6572 439.432 15.195 431.883C14.8908 426.914 14.496 421.951 14.1899 416.983C14.0285 414.363 13.8877 411.801 13.7552 409.186C13.7465 409.014 13.5836 405.242 13.8096 410.082C14.1302 416.95 14.4751 423.825 14.4751 430.701C14.4751 438.753 13.6802 446.628 12.8995 454.621C12.7779 455.866 12.5504 457.443 12.7229 458.737C12.7562 458.986 12.9921 458.294 13.0217 458.044C13.6455 452.787 13.5607 447.317 13.8367 442.03C14.1973 435.123 14.0448 428.146 14.7332 421.261C14.7537 421.057 14.6932 420.816 14.8147 420.65C15.1749 420.159 14.9372 421.862 14.9777 422.47C15.3188 427.586 15.7525 432.696 15.9828 437.819C16.4272 447.699 16.5805 477.375 16.5805 467.484C16.5805 457.77 16.1636 447.822 17.3004 438.159C17.3877 437.416 17.3432 439.653 17.3683 440.4C17.4778 443.652 17.6421 446.903 17.8166 450.152C18.2751 458.692 19.1957 467.598 17.3683 476.042C17.2015 476.813 16.986 478.213 16.499 478.921C16.0502 479.574 16.1671 477.37 16.0643 476.585C15.4252 471.7 14.5889 466.804 14.2442 461.888C14.1714 460.85 14.0301 455.998 14.1899 459.905C14.4246 465.643 14.7843 471.385 14.4887 477.128C14.4617 477.654 14.4267 478.18 14.38 478.704C14.3443 479.106 14.5645 479.749 14.1899 479.899C13.8853 480.021 14.1035 479.248 14.0812 478.921C14.0422 478.348 13.9129 476.214 13.8911 475.824C13.6 470.619 12.999 465.249 13.4157 460.041C13.7348 456.051 14.8108 462.073 15.0864 462.934C16.6891 467.939 18.6023 474.595 22.6657 478.242C24.962 480.303 24.7141 474.041 24.7575 473.135C24.9687 468.73 24.8933 464.314 24.8933 459.905C24.8933 459.357 24.8639 459.068 24.9205 459.959C25.0337 461.742 25.2452 463.515 25.491 465.284C25.8347 467.759 26.2309 470.226 26.5776 472.7C26.6878 473.487 26.681 476.541 27.4333 477.21C27.8124 477.547 27.4982 476.189 27.4198 475.688C27.0734 473.477 26.5605 471.267 25.9528 469.114C25.2862 466.753 24.4893 464.427 23.698 462.105C23.1446 460.482 22.0674 455.631 21.7964 457.324C21.6086 458.498 22.1526 460.304 22.3669 461.399C22.8717 463.979 23.5223 466.526 24.2685 469.046C24.7367 470.628 25.1908 472.362 25.8985 473.868C26.3259 474.778 26.032 471.849 25.8985 470.853C25.138 465.18 23.4491 459.479 21.7149 454.037C21.6331 453.781 21.5571 453.52 21.4432 453.276C21.2095 452.776 21.7577 454.338 21.9594 454.852C23.4387 458.626 25.1841 462.336 27.1481 465.882C27.3426 466.233 32.8536 474.82 33.342 474.14C33.6597 473.698 33.1017 472.125 33.0024 471.79C32.2973 469.414 31.1602 467.172 30.15 464.917C29.302 463.025 28.4778 461.122 27.6371 459.226C27.2069 458.256 26.4417 455.375 26.1701 456.401C25.9384 457.276 26.5806 459.36 26.727 460.027C27.6491 464.225 28.9303 468.328 30.7884 472.211C31.8595 474.45 33.1118 476.652 34.5916 478.65C34.9792 479.173 35.7673 480.522 36.0586 479.94C36.293 479.471 35.7932 478.185 35.6783 477.807C35.0796 475.842 34.2656 473.934 33.3963 472.075C32.992 471.211 30.719 466.639 32.3912 470.174C34.1017 473.789 36.5591 476.95 39.3728 479.763C40.5977 480.988 38.5865 478.277 39.7396 478.527C41.2678 478.86 45.3578 480.102 42.1166 477.699C34.7381 472.228 24.437 469.754 20.4109 460.638C18.8256 457.049 18.3898 452.898 17.9252 449.039C17.5327 445.778 17.246 442.542 17.1238 439.259C16.8096 430.814 17.6369 422.332 17.5449 413.872C17.4137 401.803 16.0915 389.794 16.0915 377.714C16.0915 372.208 15.901 366.714 15.847 361.211C15.8056 356.983 15.2849 352.767 15.847 348.551" stroke="#964B00" stroke-width="10" stroke-linecap="round"/>
</svg>
